<mxfile host="app.diagrams.net" agent="Mozilla/5.0 (Windows NT 10.0; Win64; x64) AppleWebKit/537.36 (KHTML, like Gecko) Chrome/128.0.0.0 Safari/537.36 OPR/114.0.0.0" version="26.0.4">
  <diagram id="C5RBs43oDa-KdzZeNtuy" name="Page-1">
    <mxGraphModel grid="1" page="1" gridSize="10" guides="1" tooltips="1" connect="1" arrows="1" fold="1" pageScale="1" pageWidth="827" pageHeight="1169" math="0" shadow="0">
      <root>
        <mxCell id="WIyWlLk6GJQsqaUBKTNV-0" />
        <mxCell id="WIyWlLk6GJQsqaUBKTNV-1" parent="WIyWlLk6GJQsqaUBKTNV-0" />
        <mxCell id="qyGvKozQ2ItO-eMo8t-X-61" style="edgeStyle=orthogonalEdgeStyle;rounded=0;orthogonalLoop=1;jettySize=auto;html=1;exitX=0.5;exitY=0;exitDx=0;exitDy=0;entryX=0;entryY=0.5;entryDx=0;entryDy=0;dashed=1;" edge="1" parent="WIyWlLk6GJQsqaUBKTNV-1" source="zkfFHV4jXpPFQw0GAbJ--0" target="qyGvKozQ2ItO-eMo8t-X-56">
          <mxGeometry relative="1" as="geometry" />
        </mxCell>
        <mxCell id="zkfFHV4jXpPFQw0GAbJ--0" value="Scene" style="swimlane;fontStyle=3;align=center;verticalAlign=top;childLayout=stackLayout;horizontal=1;startSize=26;horizontalStack=0;resizeParent=1;resizeLast=0;collapsible=1;marginBottom=0;rounded=0;shadow=0;strokeWidth=1;" vertex="1" parent="WIyWlLk6GJQsqaUBKTNV-1">
          <mxGeometry x="-190" y="-494" width="330" height="300" as="geometry">
            <mxRectangle x="230" y="140" width="160" height="26" as="alternateBounds" />
          </mxGeometry>
        </mxCell>
        <mxCell id="zkfFHV4jXpPFQw0GAbJ--1" value=" - vector &lt;Solid*&gt;gameObjects" style="text;align=left;verticalAlign=top;spacingLeft=4;spacingRight=4;overflow=hidden;rotatable=0;points=[[0,0.5],[1,0.5]];portConstraint=eastwest;" vertex="1" parent="zkfFHV4jXpPFQw0GAbJ--0">
          <mxGeometry y="26" width="330" height="26" as="geometry" />
        </mxCell>
        <mxCell id="zkfFHV4jXpPFQw0GAbJ--2" value="- Camera camera" style="text;align=left;verticalAlign=top;spacingLeft=4;spacingRight=4;overflow=hidden;rotatable=0;points=[[0,0.5],[1,0.5]];portConstraint=eastwest;rounded=0;shadow=0;html=0;" vertex="1" parent="zkfFHV4jXpPFQw0GAbJ--0">
          <mxGeometry y="52" width="330" height="26" as="geometry" />
        </mxCell>
        <mxCell id="zkfFHV4jXpPFQw0GAbJ--3" value="-  bool sceneHasEnded" style="text;align=left;verticalAlign=top;spacingLeft=4;spacingRight=4;overflow=hidden;rotatable=0;points=[[0,0.5],[1,0.5]];portConstraint=eastwest;rounded=0;shadow=0;html=0;" vertex="1" parent="zkfFHV4jXpPFQw0GAbJ--0">
          <mxGeometry y="78" width="330" height="26" as="geometry" />
        </mxCell>
        <mxCell id="zkfFHV4jXpPFQw0GAbJ--4" value="" style="line;html=1;strokeWidth=1;align=left;verticalAlign=middle;spacingTop=-1;spacingLeft=3;spacingRight=3;rotatable=0;labelPosition=right;points=[];portConstraint=eastwest;" vertex="1" parent="zkfFHV4jXpPFQw0GAbJ--0">
          <mxGeometry y="104" width="330" height="8" as="geometry" />
        </mxCell>
        <mxCell id="zkfFHV4jXpPFQw0GAbJ--5" value="+ void Init ()&#xa;+ virtual void Render()&#xa;+ virtual void Update()&#xa;+ virtual void AddGameObject()&#xa;+ Camera getCamera()&#xa;+ bool hasEndedScene ()&#xa;+ void endScene()&#xa;+ virtual void ProcessKeyPressed();&#xa;+ virtual void ProcessSpecialKeyPressed()&#xa;+ virtual void ProcessMouseMovement()&#xa;+ virtual void ProcessMouseClicked()&#xa;+ virtual void Reset() = 0&#xa;" style="text;align=left;verticalAlign=top;spacingLeft=4;spacingRight=4;overflow=hidden;rotatable=0;points=[[0,0.5],[1,0.5]];portConstraint=eastwest;" vertex="1" parent="zkfFHV4jXpPFQw0GAbJ--0">
          <mxGeometry y="112" width="330" height="178" as="geometry" />
        </mxCell>
        <mxCell id="qyGvKozQ2ItO-eMo8t-X-40" style="edgeStyle=orthogonalEdgeStyle;rounded=0;orthogonalLoop=1;jettySize=auto;html=1;exitX=0.5;exitY=0;exitDx=0;exitDy=0;entryX=0.5;entryY=1;entryDx=0;entryDy=0;" edge="1" parent="WIyWlLk6GJQsqaUBKTNV-1" source="zkfFHV4jXpPFQw0GAbJ--6" target="zkfFHV4jXpPFQw0GAbJ--0">
          <mxGeometry relative="1" as="geometry" />
        </mxCell>
        <mxCell id="zkfFHV4jXpPFQw0GAbJ--6" value="GameScene" style="swimlane;fontStyle=0;align=center;verticalAlign=top;childLayout=stackLayout;horizontal=1;startSize=26;horizontalStack=0;resizeParent=1;resizeLast=0;collapsible=1;marginBottom=0;rounded=0;shadow=0;strokeWidth=1;" vertex="1" parent="WIyWlLk6GJQsqaUBKTNV-1">
          <mxGeometry x="-380" y="-64" width="290" height="560" as="geometry">
            <mxRectangle x="120" y="360" width="160" height="26" as="alternateBounds" />
          </mxGeometry>
        </mxCell>
        <mxCell id="zkfFHV4jXpPFQw0GAbJ--7" value="- Player* player&#xa;- Cuboid* carretera&#xa;- Cuboid* sep1&#xa;- Cuboid* sep2&#xa;- Cuboid* sep3&#xa;- Cuboid* sep4 &#xa;- Emitter* emitterBarrelC1 &#xa;- Emitter* emitterBarrelC2 &#xa;- Emitter* emitterBarrelC3 &#xa;- Emitter* emitterWideBarrel1 &#xa;- Emitter* emitterWideBarrel2 &#xa;- Emitter* emitterPowerUp1 &#xa;- Emitter* emitterPowerUp2 &#xa;- Emitter* emitterPowerUp3 &#xa;- UICanva* canva&#xa;- vector&lt;Emitter*&gt; barrelEmitters;&#xa;- vector &lt;Emitter*&gt; powerUpEmitters;&#xa;- bool shieldEffect &#xa;- bool speedEffect&#xa;- const float reduce = 0.5&#xa;- chrono::steady_clock::time_point timePowerUp&#xa;- Level level&#xa;- Time time" style="text;align=left;verticalAlign=top;spacingLeft=4;spacingRight=4;overflow=hidden;rotatable=0;points=[[0,0.5],[1,0.5]];portConstraint=eastwest;" vertex="1" parent="zkfFHV4jXpPFQw0GAbJ--6">
          <mxGeometry y="26" width="290" height="334" as="geometry" />
        </mxCell>
        <mxCell id="zkfFHV4jXpPFQw0GAbJ--9" value="" style="line;html=1;strokeWidth=1;align=left;verticalAlign=middle;spacingTop=-1;spacingLeft=3;spacingRight=3;rotatable=0;labelPosition=right;points=[];portConstraint=eastwest;" vertex="1" parent="zkfFHV4jXpPFQw0GAbJ--6">
          <mxGeometry y="360" width="290" height="8" as="geometry" />
        </mxCell>
        <mxCell id="zkfFHV4jXpPFQw0GAbJ--10" value="+ inline Level getLevel() &#xa;+ void usePowerUpPlayer()&#xa;+ void recogerPowerUp()&#xa;+ void Init()&#xa;+ void powerUpCollisions()&#xa;+ void barrelCollisions()&#xa;+ void activateRay()&#xa;+ void activateShield()&#xa;+ void activateSpeedReduce()&#xa;+ void resetTimeEffects()&#xa;+ void ProcessKeyPressed()&#xa;+ void Update()&#xa;+ void Reset()" style="text;align=left;verticalAlign=top;spacingLeft=4;spacingRight=4;overflow=hidden;rotatable=0;points=[[0,0.5],[1,0.5]];portConstraint=eastwest;fontStyle=0" vertex="1" parent="zkfFHV4jXpPFQw0GAbJ--6">
          <mxGeometry y="368" width="290" height="192" as="geometry" />
        </mxCell>
        <mxCell id="qyGvKozQ2ItO-eMo8t-X-0" value="Enumeration &lt;Level&gt;" style="swimlane;fontStyle=2;align=center;verticalAlign=top;childLayout=stackLayout;horizontal=1;startSize=26;horizontalStack=0;resizeParent=1;resizeLast=0;collapsible=1;marginBottom=0;rounded=0;shadow=0;strokeWidth=1;" vertex="1" parent="WIyWlLk6GJQsqaUBKTNV-1">
          <mxGeometry x="-600" y="-439" width="160" height="110" as="geometry">
            <mxRectangle x="230" y="140" width="160" height="26" as="alternateBounds" />
          </mxGeometry>
        </mxCell>
        <mxCell id="qyGvKozQ2ItO-eMo8t-X-2" value="Level 1&#xa;Level 2&#xa;Level 3&#xa;Level 4 &#xa;Level 5" style="text;align=left;verticalAlign=top;spacingLeft=4;spacingRight=4;overflow=hidden;rotatable=0;points=[[0,0.5],[1,0.5]];portConstraint=eastwest;rounded=0;shadow=0;html=0;" vertex="1" parent="qyGvKozQ2ItO-eMo8t-X-0">
          <mxGeometry y="26" width="160" height="84" as="geometry" />
        </mxCell>
        <mxCell id="qyGvKozQ2ItO-eMo8t-X-23" style="edgeStyle=orthogonalEdgeStyle;rounded=0;orthogonalLoop=1;jettySize=auto;html=1;exitX=0.5;exitY=0;exitDx=0;exitDy=0;entryX=0.5;entryY=1;entryDx=0;entryDy=0;" edge="1" parent="WIyWlLk6GJQsqaUBKTNV-1" source="qyGvKozQ2ItO-eMo8t-X-16" target="zkfFHV4jXpPFQw0GAbJ--0">
          <mxGeometry relative="1" as="geometry" />
        </mxCell>
        <mxCell id="qyGvKozQ2ItO-eMo8t-X-16" value="WinScene" style="swimlane;fontStyle=0;align=center;verticalAlign=top;childLayout=stackLayout;horizontal=1;startSize=26;horizontalStack=0;resizeParent=1;resizeLast=0;collapsible=1;marginBottom=0;rounded=0;shadow=0;strokeWidth=1;" vertex="1" parent="WIyWlLk6GJQsqaUBKTNV-1">
          <mxGeometry x="-50" y="-64" width="210" height="190" as="geometry">
            <mxRectangle x="120" y="360" width="160" height="26" as="alternateBounds" />
          </mxGeometry>
        </mxCell>
        <mxCell id="qyGvKozQ2ItO-eMo8t-X-17" value="- Text* message&#xa;- Text* restart&#xa;- Text* salir&#xa;- unsigned int selected&#xa;" style="text;align=left;verticalAlign=top;spacingLeft=4;spacingRight=4;overflow=hidden;rotatable=0;points=[[0,0.5],[1,0.5]];portConstraint=eastwest;" vertex="1" parent="qyGvKozQ2ItO-eMo8t-X-16">
          <mxGeometry y="26" width="210" height="74" as="geometry" />
        </mxCell>
        <mxCell id="qyGvKozQ2ItO-eMo8t-X-18" value="" style="line;html=1;strokeWidth=1;align=left;verticalAlign=middle;spacingTop=-1;spacingLeft=3;spacingRight=3;rotatable=0;labelPosition=right;points=[];portConstraint=eastwest;" vertex="1" parent="qyGvKozQ2ItO-eMo8t-X-16">
          <mxGeometry y="100" width="210" height="8" as="geometry" />
        </mxCell>
        <mxCell id="qyGvKozQ2ItO-eMo8t-X-19" value="+ void Init()&#xa;+ void Reset()&#xa;+ void ProcessKeyPressed()&#xa;+ void ProcessSpecialKeyPressed()" style="text;align=left;verticalAlign=top;spacingLeft=4;spacingRight=4;overflow=hidden;rotatable=0;points=[[0,0.5],[1,0.5]];portConstraint=eastwest;fontStyle=0" vertex="1" parent="qyGvKozQ2ItO-eMo8t-X-16">
          <mxGeometry y="108" width="210" height="82" as="geometry" />
        </mxCell>
        <mxCell id="eUKd4wo9xv5tM5uWWKsk-11" style="edgeStyle=orthogonalEdgeStyle;rounded=0;orthogonalLoop=1;jettySize=auto;html=1;exitX=0.5;exitY=0;exitDx=0;exitDy=0;entryX=0;entryY=0.5;entryDx=0;entryDy=0;dashed=1;" edge="1" parent="WIyWlLk6GJQsqaUBKTNV-1" source="qyGvKozQ2ItO-eMo8t-X-24" target="zkfFHV4jXpPFQw0GAbJ--1">
          <mxGeometry relative="1" as="geometry" />
        </mxCell>
        <mxCell id="eUKd4wo9xv5tM5uWWKsk-18" style="edgeStyle=orthogonalEdgeStyle;rounded=0;orthogonalLoop=1;jettySize=auto;html=1;exitX=1;exitY=0.5;exitDx=0;exitDy=0;entryX=0.25;entryY=0;entryDx=0;entryDy=0;dashed=1;" edge="1" parent="WIyWlLk6GJQsqaUBKTNV-1" source="qyGvKozQ2ItO-eMo8t-X-24" target="zkfFHV4jXpPFQw0GAbJ--6">
          <mxGeometry relative="1" as="geometry" />
        </mxCell>
        <mxCell id="eUKd4wo9xv5tM5uWWKsk-50" style="edgeStyle=elbowEdgeStyle;rounded=0;orthogonalLoop=1;jettySize=auto;html=1;exitX=0;exitY=0.5;exitDx=0;exitDy=0;entryX=0.75;entryY=0;entryDx=0;entryDy=0;dashed=1;" edge="1" parent="WIyWlLk6GJQsqaUBKTNV-1" source="qyGvKozQ2ItO-eMo8t-X-24" target="eUKd4wo9xv5tM5uWWKsk-36">
          <mxGeometry relative="1" as="geometry">
            <Array as="points">
              <mxPoint x="-1200" y="-180" />
            </Array>
          </mxGeometry>
        </mxCell>
        <mxCell id="qyGvKozQ2ItO-eMo8t-X-24" value="&lt;vector&gt;" style="swimlane;fontStyle=2;align=center;verticalAlign=top;childLayout=stackLayout;horizontal=1;startSize=26;horizontalStack=0;resizeParent=1;resizeLast=0;collapsible=1;marginBottom=0;rounded=0;shadow=0;strokeWidth=1;" collapsed="1" vertex="1" parent="WIyWlLk6GJQsqaUBKTNV-1">
          <mxGeometry x="-780" y="-318" width="160" height="26" as="geometry">
            <mxRectangle x="-180" y="700" width="160" height="30" as="alternateBounds" />
          </mxGeometry>
        </mxCell>
        <mxCell id="eUKd4wo9xv5tM5uWWKsk-17" style="edgeStyle=orthogonalEdgeStyle;rounded=0;orthogonalLoop=1;jettySize=auto;html=1;exitX=1;exitY=0.5;exitDx=0;exitDy=0;entryX=0.25;entryY=0;entryDx=0;entryDy=0;dashed=1;" edge="1" parent="WIyWlLk6GJQsqaUBKTNV-1" source="qyGvKozQ2ItO-eMo8t-X-26" target="zkfFHV4jXpPFQw0GAbJ--6">
          <mxGeometry relative="1" as="geometry" />
        </mxCell>
        <mxCell id="4nb4BcyhLwAWRvv1Huzy-9" style="edgeStyle=orthogonalEdgeStyle;rounded=0;orthogonalLoop=1;jettySize=auto;html=1;exitX=0.75;exitY=1;exitDx=0;exitDy=0;entryX=0.25;entryY=0;entryDx=0;entryDy=0;" edge="1" parent="WIyWlLk6GJQsqaUBKTNV-1" source="qyGvKozQ2ItO-eMo8t-X-26" target="4nb4BcyhLwAWRvv1Huzy-0">
          <mxGeometry relative="1" as="geometry">
            <Array as="points">
              <mxPoint x="-660" y="-150" />
              <mxPoint x="-70" y="-150" />
              <mxPoint x="-70" y="212" />
            </Array>
          </mxGeometry>
        </mxCell>
        <mxCell id="qyGvKozQ2ItO-eMo8t-X-26" value="&lt;chrono&gt;" style="swimlane;fontStyle=2;align=center;verticalAlign=top;childLayout=stackLayout;horizontal=1;startSize=26;horizontalStack=0;resizeParent=1;resizeLast=0;collapsible=1;marginBottom=0;rounded=0;shadow=0;strokeWidth=1;" collapsed="1" vertex="1" parent="WIyWlLk6GJQsqaUBKTNV-1">
          <mxGeometry x="-780" y="-278" width="160" height="26" as="geometry">
            <mxRectangle x="-180" y="750" width="160" height="30" as="alternateBounds" />
          </mxGeometry>
        </mxCell>
        <mxCell id="qyGvKozQ2ItO-eMo8t-X-34" style="edgeStyle=orthogonalEdgeStyle;rounded=0;orthogonalLoop=1;jettySize=auto;html=1;exitX=0.5;exitY=0;exitDx=0;exitDy=0;entryX=0.5;entryY=1;entryDx=0;entryDy=0;" edge="1" parent="WIyWlLk6GJQsqaUBKTNV-1" source="qyGvKozQ2ItO-eMo8t-X-30" target="zkfFHV4jXpPFQw0GAbJ--0">
          <mxGeometry relative="1" as="geometry" />
        </mxCell>
        <mxCell id="qyGvKozQ2ItO-eMo8t-X-30" value="LoseScene" style="swimlane;fontStyle=0;align=center;verticalAlign=top;childLayout=stackLayout;horizontal=1;startSize=26;horizontalStack=0;resizeParent=1;resizeLast=0;collapsible=1;marginBottom=0;rounded=0;shadow=0;strokeWidth=1;" vertex="1" parent="WIyWlLk6GJQsqaUBKTNV-1">
          <mxGeometry x="190" y="-64" width="210" height="190" as="geometry">
            <mxRectangle x="120" y="360" width="160" height="26" as="alternateBounds" />
          </mxGeometry>
        </mxCell>
        <mxCell id="qyGvKozQ2ItO-eMo8t-X-31" value="- Text* textoPerder&#xa;- Text* reinicio&#xa;- Text* salir&#xa;- unsigned int selected" style="text;align=left;verticalAlign=top;spacingLeft=4;spacingRight=4;overflow=hidden;rotatable=0;points=[[0,0.5],[1,0.5]];portConstraint=eastwest;" vertex="1" parent="qyGvKozQ2ItO-eMo8t-X-30">
          <mxGeometry y="26" width="210" height="74" as="geometry" />
        </mxCell>
        <mxCell id="qyGvKozQ2ItO-eMo8t-X-32" value="" style="line;html=1;strokeWidth=1;align=left;verticalAlign=middle;spacingTop=-1;spacingLeft=3;spacingRight=3;rotatable=0;labelPosition=right;points=[];portConstraint=eastwest;" vertex="1" parent="qyGvKozQ2ItO-eMo8t-X-30">
          <mxGeometry y="100" width="210" height="8" as="geometry" />
        </mxCell>
        <mxCell id="qyGvKozQ2ItO-eMo8t-X-33" value="+ void Init()&#xa;+ void Reset()&#xa;+ void ProcessKeyPressed()&#xa;+ void ProcessSpecialKeyPressed()" style="text;align=left;verticalAlign=top;spacingLeft=4;spacingRight=4;overflow=hidden;rotatable=0;points=[[0,0.5],[1,0.5]];portConstraint=eastwest;fontStyle=0" vertex="1" parent="qyGvKozQ2ItO-eMo8t-X-30">
          <mxGeometry y="108" width="210" height="82" as="geometry" />
        </mxCell>
        <mxCell id="qyGvKozQ2ItO-eMo8t-X-39" style="edgeStyle=orthogonalEdgeStyle;rounded=0;orthogonalLoop=1;jettySize=auto;html=1;exitX=0.5;exitY=0;exitDx=0;exitDy=0;entryX=0.5;entryY=1;entryDx=0;entryDy=0;" edge="1" parent="WIyWlLk6GJQsqaUBKTNV-1" source="qyGvKozQ2ItO-eMo8t-X-35" target="zkfFHV4jXpPFQw0GAbJ--0">
          <mxGeometry relative="1" as="geometry" />
        </mxCell>
        <mxCell id="qyGvKozQ2ItO-eMo8t-X-35" value="MenuScene" style="swimlane;fontStyle=0;align=center;verticalAlign=top;childLayout=stackLayout;horizontal=1;startSize=26;horizontalStack=0;resizeParent=1;resizeLast=0;collapsible=1;marginBottom=0;rounded=0;shadow=0;strokeWidth=1;" vertex="1" parent="WIyWlLk6GJQsqaUBKTNV-1">
          <mxGeometry x="420" y="-64" width="210" height="190" as="geometry">
            <mxRectangle x="120" y="360" width="160" height="26" as="alternateBounds" />
          </mxGeometry>
        </mxCell>
        <mxCell id="qyGvKozQ2ItO-eMo8t-X-36" value="- Text* title&#xa;- Text* inputText1&#xa;- Text* inputText2&#xa;- unsigned int selected" style="text;align=left;verticalAlign=top;spacingLeft=4;spacingRight=4;overflow=hidden;rotatable=0;points=[[0,0.5],[1,0.5]];portConstraint=eastwest;" vertex="1" parent="qyGvKozQ2ItO-eMo8t-X-35">
          <mxGeometry y="26" width="210" height="74" as="geometry" />
        </mxCell>
        <mxCell id="qyGvKozQ2ItO-eMo8t-X-37" value="" style="line;html=1;strokeWidth=1;align=left;verticalAlign=middle;spacingTop=-1;spacingLeft=3;spacingRight=3;rotatable=0;labelPosition=right;points=[];portConstraint=eastwest;" vertex="1" parent="qyGvKozQ2ItO-eMo8t-X-35">
          <mxGeometry y="100" width="210" height="8" as="geometry" />
        </mxCell>
        <mxCell id="qyGvKozQ2ItO-eMo8t-X-38" value="+ void Init()&#xa;+ void Reset()&#xa;+ void ProcessKeyPressed()&#xa;+ void ProcessSpecialKeyPressed()" style="text;align=left;verticalAlign=top;spacingLeft=4;spacingRight=4;overflow=hidden;rotatable=0;points=[[0,0.5],[1,0.5]];portConstraint=eastwest;fontStyle=0" vertex="1" parent="qyGvKozQ2ItO-eMo8t-X-35">
          <mxGeometry y="108" width="210" height="82" as="geometry" />
        </mxCell>
        <mxCell id="qyGvKozQ2ItO-eMo8t-X-50" style="edgeStyle=orthogonalEdgeStyle;rounded=0;orthogonalLoop=1;jettySize=auto;html=1;exitX=0.5;exitY=1;exitDx=0;exitDy=0;entryX=0.25;entryY=0;entryDx=0;entryDy=0;dashed=1;" edge="1" parent="WIyWlLk6GJQsqaUBKTNV-1" source="qyGvKozQ2ItO-eMo8t-X-41" target="qyGvKozQ2ItO-eMo8t-X-35">
          <mxGeometry relative="1" as="geometry" />
        </mxCell>
        <mxCell id="qyGvKozQ2ItO-eMo8t-X-51" style="edgeStyle=orthogonalEdgeStyle;rounded=0;orthogonalLoop=1;jettySize=auto;html=1;exitX=0.5;exitY=1;exitDx=0;exitDy=0;entryX=0.75;entryY=0;entryDx=0;entryDy=0;dashed=1;" edge="1" parent="WIyWlLk6GJQsqaUBKTNV-1" source="qyGvKozQ2ItO-eMo8t-X-41" target="qyGvKozQ2ItO-eMo8t-X-30">
          <mxGeometry relative="1" as="geometry" />
        </mxCell>
        <mxCell id="qyGvKozQ2ItO-eMo8t-X-52" style="edgeStyle=orthogonalEdgeStyle;rounded=0;orthogonalLoop=1;jettySize=auto;html=1;exitX=0.5;exitY=1;exitDx=0;exitDy=0;entryX=0.75;entryY=0;entryDx=0;entryDy=0;dashed=1;" edge="1" parent="WIyWlLk6GJQsqaUBKTNV-1" source="qyGvKozQ2ItO-eMo8t-X-41" target="qyGvKozQ2ItO-eMo8t-X-16">
          <mxGeometry relative="1" as="geometry" />
        </mxCell>
        <mxCell id="qyGvKozQ2ItO-eMo8t-X-53" style="edgeStyle=orthogonalEdgeStyle;rounded=0;orthogonalLoop=1;jettySize=auto;html=1;exitX=0.5;exitY=1;exitDx=0;exitDy=0;entryX=0.75;entryY=0;entryDx=0;entryDy=0;dashed=1;" edge="1" parent="WIyWlLk6GJQsqaUBKTNV-1" source="qyGvKozQ2ItO-eMo8t-X-41" target="zkfFHV4jXpPFQw0GAbJ--6">
          <mxGeometry relative="1" as="geometry" />
        </mxCell>
        <mxCell id="qyGvKozQ2ItO-eMo8t-X-41" value="Text" style="swimlane;fontStyle=3;align=center;verticalAlign=top;childLayout=stackLayout;horizontal=1;startSize=26;horizontalStack=0;resizeParent=1;resizeLast=0;collapsible=1;marginBottom=0;rounded=0;shadow=0;strokeWidth=1;" vertex="1" parent="WIyWlLk6GJQsqaUBKTNV-1">
          <mxGeometry x="200" y="-494" width="270" height="220" as="geometry">
            <mxRectangle x="230" y="140" width="160" height="26" as="alternateBounds" />
          </mxGeometry>
        </mxCell>
        <mxCell id="qyGvKozQ2ItO-eMo8t-X-42" value=" - string texto&#xa; - textType tipo" style="text;align=left;verticalAlign=top;spacingLeft=4;spacingRight=4;overflow=hidden;rotatable=0;points=[[0,0.5],[1,0.5]];portConstraint=eastwest;" vertex="1" parent="qyGvKozQ2ItO-eMo8t-X-41">
          <mxGeometry y="26" width="270" height="44" as="geometry" />
        </mxCell>
        <mxCell id="qyGvKozQ2ItO-eMo8t-X-45" value="" style="line;html=1;strokeWidth=1;align=left;verticalAlign=middle;spacingTop=-1;spacingLeft=3;spacingRight=3;rotatable=0;labelPosition=right;points=[];portConstraint=eastwest;" vertex="1" parent="qyGvKozQ2ItO-eMo8t-X-41">
          <mxGeometry y="70" width="270" height="8" as="geometry" />
        </mxCell>
        <mxCell id="qyGvKozQ2ItO-eMo8t-X-46" value="+ void setText(const string&amp; text)&#xa;+ void setText(int value)&#xa;+  void setText(float value) &#xa;+  void setText(double value)&#xa;+  inline string getText()&#xa;+  inline textType getType() &#xa;+  inline void setType(const textType&amp; typetoSet)&#xa;+  void Render();&#xa;+  Solid* Clone();" style="text;align=left;verticalAlign=top;spacingLeft=4;spacingRight=4;overflow=hidden;rotatable=0;points=[[0,0.5],[1,0.5]];portConstraint=eastwest;" vertex="1" parent="qyGvKozQ2ItO-eMo8t-X-41">
          <mxGeometry y="78" width="270" height="132" as="geometry" />
        </mxCell>
        <mxCell id="qyGvKozQ2ItO-eMo8t-X-47" value="Enumeration &lt;TextType&gt;" style="swimlane;fontStyle=2;align=center;verticalAlign=top;childLayout=stackLayout;horizontal=1;startSize=26;horizontalStack=0;resizeParent=1;resizeLast=0;collapsible=1;marginBottom=0;rounded=0;shadow=0;strokeWidth=1;" vertex="1" parent="WIyWlLk6GJQsqaUBKTNV-1">
          <mxGeometry x="530" y="-494" width="160" height="110" as="geometry">
            <mxRectangle x="230" y="140" width="160" height="26" as="alternateBounds" />
          </mxGeometry>
        </mxCell>
        <mxCell id="qyGvKozQ2ItO-eMo8t-X-48" value="Helvetica10&#xa;Helvetica12&#xa;Helvetica18&#xa;TimesNewRoman10&#xa;TimesNewRoman24" style="text;align=left;verticalAlign=top;spacingLeft=4;spacingRight=4;overflow=hidden;rotatable=0;points=[[0,0.5],[1,0.5]];portConstraint=eastwest;rounded=0;shadow=0;html=0;" vertex="1" parent="qyGvKozQ2ItO-eMo8t-X-47">
          <mxGeometry y="26" width="160" height="84" as="geometry" />
        </mxCell>
        <mxCell id="qyGvKozQ2ItO-eMo8t-X-49" style="edgeStyle=orthogonalEdgeStyle;rounded=0;orthogonalLoop=1;jettySize=auto;html=1;exitX=0;exitY=0.5;exitDx=0;exitDy=0;entryX=1.005;entryY=1.041;entryDx=0;entryDy=0;entryPerimeter=0;dashed=1;" edge="1" parent="WIyWlLk6GJQsqaUBKTNV-1" source="qyGvKozQ2ItO-eMo8t-X-48" target="qyGvKozQ2ItO-eMo8t-X-42">
          <mxGeometry relative="1" as="geometry" />
        </mxCell>
        <mxCell id="qyGvKozQ2ItO-eMo8t-X-55" value="Game" style="swimlane;fontStyle=3;align=center;verticalAlign=top;childLayout=stackLayout;horizontal=1;startSize=26;horizontalStack=0;resizeParent=1;resizeLast=0;collapsible=1;marginBottom=0;rounded=0;shadow=0;strokeWidth=1;" vertex="1" parent="WIyWlLk6GJQsqaUBKTNV-1">
          <mxGeometry x="210" y="-1060" width="340" height="360" as="geometry">
            <mxRectangle x="230" y="140" width="160" height="26" as="alternateBounds" />
          </mxGeometry>
        </mxCell>
        <mxCell id="qyGvKozQ2ItO-eMo8t-X-56" value="- milliseconds initialMilliseconds&#xa;- long lasUpdatedTime&#xa;- const float TIME_INCREMENT = 0.4&#xa;- const long UPDATE_PERIOD = 10&#xa;- vector&lt;Scene*&gt; scenes&#xa;- Scene* activeScene&#xa;- MenuScene* menu&#xa;- GameScene* lvl1&#xa;- GameScene lvl2&#xa;- GameScene lvl3&#xa;- GameScene lvl4&#xa;- GameScene lvl5&#xa;- WinScene* win&#xa;- LoseScene* lose" style="text;align=left;verticalAlign=top;spacingLeft=4;spacingRight=4;overflow=hidden;rotatable=0;points=[[0,0.5],[1,0.5]];portConstraint=eastwest;" vertex="1" parent="qyGvKozQ2ItO-eMo8t-X-55">
          <mxGeometry y="26" width="340" height="214" as="geometry" />
        </mxCell>
        <mxCell id="qyGvKozQ2ItO-eMo8t-X-59" value="" style="line;html=1;strokeWidth=1;align=left;verticalAlign=middle;spacingTop=-1;spacingLeft=3;spacingRight=3;rotatable=0;labelPosition=right;points=[];portConstraint=eastwest;" vertex="1" parent="qyGvKozQ2ItO-eMo8t-X-55">
          <mxGeometry y="240" width="340" height="8" as="geometry" />
        </mxCell>
        <mxCell id="qyGvKozQ2ItO-eMo8t-X-60" value="+ void Init();&#xa;+ void Render();&#xa;+ void Update();&#xa;+ void ProcessKeyPressed(unsigned char key, int px, int py);&#xa;+ void ProcessSpecialKeyPressed(int key, int px, int py);&#xa;+ void ProcessMouseMovement(int x, int y);&#xa;+ void ProcessMouseClicked(int button, int state, int x, int y);&#xa;" style="text;align=left;verticalAlign=top;spacingLeft=4;spacingRight=4;overflow=hidden;rotatable=0;points=[[0,0.5],[1,0.5]];portConstraint=eastwest;" vertex="1" parent="qyGvKozQ2ItO-eMo8t-X-55">
          <mxGeometry y="248" width="340" height="112" as="geometry" />
        </mxCell>
        <mxCell id="qyGvKozQ2ItO-eMo8t-X-62" value="Player" style="swimlane;fontStyle=0;align=center;verticalAlign=top;childLayout=stackLayout;horizontal=1;startSize=26;horizontalStack=0;resizeParent=1;resizeLast=0;collapsible=1;marginBottom=0;rounded=0;shadow=0;strokeWidth=1;" vertex="1" parent="WIyWlLk6GJQsqaUBKTNV-1">
          <mxGeometry x="-770" y="-124" width="310" height="450" as="geometry">
            <mxRectangle x="120" y="360" width="160" height="26" as="alternateBounds" />
          </mxGeometry>
        </mxCell>
        <mxCell id="qyGvKozQ2ItO-eMo8t-X-63" value="- MaterialModel model&#xa;- int lives&#xa;- int coinsValue&#xa;- int carril&#xa;- const float distanceColission = 1&#xa;- const float distanceColissionWideBarrel = 5&#xa;- Sphere* shield&#xa;- PowerUp powerUp" style="text;align=left;verticalAlign=top;spacingLeft=4;spacingRight=4;overflow=hidden;rotatable=0;points=[[0,0.5],[1,0.5]];portConstraint=eastwest;" vertex="1" parent="qyGvKozQ2ItO-eMo8t-X-62">
          <mxGeometry y="26" width="310" height="134" as="geometry" />
        </mxCell>
        <mxCell id="qyGvKozQ2ItO-eMo8t-X-64" value="" style="line;html=1;strokeWidth=1;align=left;verticalAlign=middle;spacingTop=-1;spacingLeft=3;spacingRight=3;rotatable=0;labelPosition=right;points=[];portConstraint=eastwest;" vertex="1" parent="qyGvKozQ2ItO-eMo8t-X-62">
          <mxGeometry y="160" width="310" height="8" as="geometry" />
        </mxCell>
        <mxCell id="qyGvKozQ2ItO-eMo8t-X-65" value="+ UICanva* uiCanva&#xa;+ PowerUp powerUp&#xa;+ inline float getDistanceColission()   &#xa;+ inline float getDistanceColissionWide() &#xa;+ int getCurrentPowerUp()&#xa;+ void setPowerUp(const int&amp; pu)&#xa;+ inline int getCarril() &#xa;+ inline void setCarril(const int&amp; carrilSet)&#xa;+ bool hasPowerUp() &#xa;+ inline int getCoins()&#xa;+ inline void setModelPlayer(const MaterialModel&amp; mS) &#xa;+ int usePowerUp()&#xa;+ void AddLive()&#xa;+ void LoseLive()&#xa;+ void addCoins()&#xa;+ void setUICanva(UICanva* ui)&#xa;+ void notifyUICanva()&#xa;+ void Render()&#xa;+ Solid* Clone()" style="text;align=left;verticalAlign=top;spacingLeft=4;spacingRight=4;overflow=hidden;rotatable=0;points=[[0,0.5],[1,0.5]];portConstraint=eastwest;fontStyle=0" vertex="1" parent="qyGvKozQ2ItO-eMo8t-X-62">
          <mxGeometry y="168" width="310" height="282" as="geometry" />
        </mxCell>
        <mxCell id="qyGvKozQ2ItO-eMo8t-X-67" value="UICanva" style="swimlane;fontStyle=0;align=center;verticalAlign=top;childLayout=stackLayout;horizontal=1;startSize=26;horizontalStack=0;resizeParent=1;resizeLast=0;collapsible=1;marginBottom=0;rounded=0;shadow=0;strokeWidth=1;" vertex="1" parent="WIyWlLk6GJQsqaUBKTNV-1">
          <mxGeometry x="-770" y="316" width="310" height="360" as="geometry">
            <mxRectangle x="-380" y="840" width="160" height="26" as="alternateBounds" />
          </mxGeometry>
        </mxCell>
        <mxCell id="qyGvKozQ2ItO-eMo8t-X-68" value="- ModelLoader loader&#xa;- Text* coinsText&#xa;- Model* heart1 = new Model()&#xa;- Model* heart2 = new Model()&#xa;- Model* heart3 = new Model()&#xa;- Model* rayPowerUpUI = new Model()&#xa;- Model* shieldPowerUpUI = new Model()&#xa;- Model* speedPowerUpUI = new Model()&#xa;- Model* activePowerUp &#xa;- Model* activeHeart1 &#xa;- Model* activeHeart2&#xa;- Model* activeHeart3 &#xa;- Model* coinUI &#xa;- int powerUi" style="text;align=left;verticalAlign=top;spacingLeft=4;spacingRight=4;overflow=hidden;rotatable=0;points=[[0,0.5],[1,0.5]];portConstraint=eastwest;" vertex="1" parent="qyGvKozQ2ItO-eMo8t-X-67">
          <mxGeometry y="26" width="310" height="214" as="geometry" />
        </mxCell>
        <mxCell id="qyGvKozQ2ItO-eMo8t-X-69" value="" style="line;html=1;strokeWidth=1;align=left;verticalAlign=middle;spacingTop=-1;spacingLeft=3;spacingRight=3;rotatable=0;labelPosition=right;points=[];portConstraint=eastwest;" vertex="1" parent="qyGvKozQ2ItO-eMo8t-X-67">
          <mxGeometry y="240" width="310" height="8" as="geometry" />
        </mxCell>
        <mxCell id="qyGvKozQ2ItO-eMo8t-X-70" value="+ void InitUI()&#xa;+ void UpdateCoinsText(const int&amp; coinsValue)    &#xa;+ void UpdateHeartsUI(const int&amp; currentLive)&#xa;+ void SetActivePowerUpUI(const int&amp; power)&#xa;+ void Update(const float&amp; timeUpdate)&#xa;+ void Render()&#xa;+ Solid* Clone()" style="text;align=left;verticalAlign=top;spacingLeft=4;spacingRight=4;overflow=hidden;rotatable=0;points=[[0,0.5],[1,0.5]];portConstraint=eastwest;fontStyle=0" vertex="1" parent="qyGvKozQ2ItO-eMo8t-X-67">
          <mxGeometry y="248" width="310" height="112" as="geometry" />
        </mxCell>
        <mxCell id="eUKd4wo9xv5tM5uWWKsk-30" style="edgeStyle=elbowEdgeStyle;rounded=0;orthogonalLoop=1;jettySize=auto;html=1;exitX=0.5;exitY=0;exitDx=0;exitDy=0;entryX=0.5;entryY=1;entryDx=0;entryDy=0;" edge="1" parent="WIyWlLk6GJQsqaUBKTNV-1" source="qyGvKozQ2ItO-eMo8t-X-72" target="eUKd4wo9xv5tM5uWWKsk-6">
          <mxGeometry relative="1" as="geometry">
            <Array as="points">
              <mxPoint x="-950" y="-24" />
            </Array>
          </mxGeometry>
        </mxCell>
        <mxCell id="qyGvKozQ2ItO-eMo8t-X-72" value="Model" style="swimlane;fontStyle=2;align=center;verticalAlign=top;childLayout=stackLayout;horizontal=1;startSize=26;horizontalStack=0;resizeParent=1;resizeLast=0;collapsible=1;marginBottom=0;rounded=0;shadow=0;strokeWidth=1;" collapsed="1" vertex="1" parent="WIyWlLk6GJQsqaUBKTNV-1">
          <mxGeometry x="-1030" y="486" width="160" height="26" as="geometry">
            <mxRectangle x="-180" y="700" width="160" height="30" as="alternateBounds" />
          </mxGeometry>
        </mxCell>
        <mxCell id="qyGvKozQ2ItO-eMo8t-X-73" style="edgeStyle=orthogonalEdgeStyle;rounded=0;orthogonalLoop=1;jettySize=auto;html=1;exitX=1;exitY=0.5;exitDx=0;exitDy=0;entryX=-0.012;entryY=0.677;entryDx=0;entryDy=0;entryPerimeter=0;dashed=1;" edge="1" parent="WIyWlLk6GJQsqaUBKTNV-1" source="qyGvKozQ2ItO-eMo8t-X-72" target="qyGvKozQ2ItO-eMo8t-X-68">
          <mxGeometry relative="1" as="geometry">
            <Array as="points">
              <mxPoint x="-840" y="499" />
              <mxPoint x="-840" y="487" />
            </Array>
          </mxGeometry>
        </mxCell>
        <mxCell id="eUKd4wo9xv5tM5uWWKsk-27" style="edgeStyle=elbowEdgeStyle;rounded=0;orthogonalLoop=1;jettySize=auto;html=1;exitX=0;exitY=0.5;exitDx=0;exitDy=0;entryX=0.5;entryY=1;entryDx=0;entryDy=0;" edge="1" parent="WIyWlLk6GJQsqaUBKTNV-1" source="eUKd4wo9xv5tM5uWWKsk-1" target="eUKd4wo9xv5tM5uWWKsk-6">
          <mxGeometry relative="1" as="geometry">
            <Array as="points">
              <mxPoint x="-950" y="-544" />
            </Array>
          </mxGeometry>
        </mxCell>
        <mxCell id="eUKd4wo9xv5tM5uWWKsk-1" value="Sphere" style="swimlane;fontStyle=2;align=center;verticalAlign=top;childLayout=stackLayout;horizontal=1;startSize=26;horizontalStack=0;resizeParent=1;resizeLast=0;collapsible=1;marginBottom=0;rounded=0;shadow=0;strokeWidth=1;" collapsed="1" vertex="1" parent="WIyWlLk6GJQsqaUBKTNV-1">
          <mxGeometry x="-767" y="-542" width="160" height="26" as="geometry">
            <mxRectangle x="-180" y="700" width="160" height="30" as="alternateBounds" />
          </mxGeometry>
        </mxCell>
        <mxCell id="eUKd4wo9xv5tM5uWWKsk-26" style="edgeStyle=elbowEdgeStyle;rounded=0;orthogonalLoop=1;jettySize=auto;html=1;exitX=0;exitY=0.5;exitDx=0;exitDy=0;entryX=0.5;entryY=1;entryDx=0;entryDy=0;" edge="1" parent="WIyWlLk6GJQsqaUBKTNV-1" source="eUKd4wo9xv5tM5uWWKsk-2" target="eUKd4wo9xv5tM5uWWKsk-6">
          <mxGeometry relative="1" as="geometry">
            <Array as="points">
              <mxPoint x="-950" y="-534" />
            </Array>
          </mxGeometry>
        </mxCell>
        <mxCell id="eUKd4wo9xv5tM5uWWKsk-2" value="Cuboid" style="swimlane;fontStyle=2;align=center;verticalAlign=top;childLayout=stackLayout;horizontal=1;startSize=26;horizontalStack=0;resizeParent=1;resizeLast=0;collapsible=1;marginBottom=0;rounded=0;shadow=0;strokeWidth=1;" collapsed="1" vertex="1" parent="WIyWlLk6GJQsqaUBKTNV-1">
          <mxGeometry x="-767" y="-502" width="160" height="26" as="geometry">
            <mxRectangle x="-180" y="700" width="160" height="30" as="alternateBounds" />
          </mxGeometry>
        </mxCell>
        <mxCell id="eUKd4wo9xv5tM5uWWKsk-62" style="edgeStyle=elbowEdgeStyle;rounded=0;orthogonalLoop=1;jettySize=auto;html=1;exitX=0.5;exitY=0;exitDx=0;exitDy=0;entryX=0;entryY=0.5;entryDx=0;entryDy=0;dashed=1;" edge="1" parent="WIyWlLk6GJQsqaUBKTNV-1" source="eUKd4wo9xv5tM5uWWKsk-6" target="eUKd4wo9xv5tM5uWWKsk-53">
          <mxGeometry relative="1" as="geometry">
            <Array as="points">
              <mxPoint x="-1580" y="10" />
            </Array>
          </mxGeometry>
        </mxCell>
        <mxCell id="eUKd4wo9xv5tM5uWWKsk-6" value="Solid" style="swimlane;fontStyle=2;align=center;verticalAlign=top;childLayout=stackLayout;horizontal=1;startSize=26;horizontalStack=0;resizeParent=1;resizeLast=0;collapsible=1;marginBottom=0;rounded=0;shadow=0;strokeWidth=1;" collapsed="1" vertex="1" parent="WIyWlLk6GJQsqaUBKTNV-1">
          <mxGeometry x="-1030" y="-598" width="160" height="26" as="geometry">
            <mxRectangle x="-180" y="700" width="160" height="30" as="alternateBounds" />
          </mxGeometry>
        </mxCell>
        <mxCell id="eUKd4wo9xv5tM5uWWKsk-15" value="" style="edgeStyle=orthogonalEdgeStyle;rounded=0;orthogonalLoop=1;jettySize=auto;html=1;dashed=1;" edge="1" parent="WIyWlLk6GJQsqaUBKTNV-1" source="qyGvKozQ2ItO-eMo8t-X-65" target="zkfFHV4jXpPFQw0GAbJ--7">
          <mxGeometry relative="1" as="geometry">
            <Array as="points">
              <mxPoint x="-430" y="155" />
              <mxPoint x="-430" y="129" />
            </Array>
          </mxGeometry>
        </mxCell>
        <mxCell id="eUKd4wo9xv5tM5uWWKsk-19" style="edgeStyle=orthogonalEdgeStyle;rounded=0;orthogonalLoop=1;jettySize=auto;html=1;dashed=1;" edge="1" parent="WIyWlLk6GJQsqaUBKTNV-1" source="qyGvKozQ2ItO-eMo8t-X-2">
          <mxGeometry relative="1" as="geometry">
            <mxPoint x="-254" y="-64" as="targetPoint" />
          </mxGeometry>
        </mxCell>
        <mxCell id="eUKd4wo9xv5tM5uWWKsk-20" style="edgeStyle=orthogonalEdgeStyle;rounded=0;orthogonalLoop=1;jettySize=auto;html=1;exitX=1;exitY=0.5;exitDx=0;exitDy=0;entryX=0.078;entryY=-0.002;entryDx=0;entryDy=0;entryPerimeter=0;dashed=1;" edge="1" parent="WIyWlLk6GJQsqaUBKTNV-1" source="eUKd4wo9xv5tM5uWWKsk-2" target="zkfFHV4jXpPFQw0GAbJ--6">
          <mxGeometry relative="1" as="geometry" />
        </mxCell>
        <mxCell id="eUKd4wo9xv5tM5uWWKsk-21" style="edgeStyle=orthogonalEdgeStyle;rounded=0;orthogonalLoop=1;jettySize=auto;html=1;exitX=1;exitY=0.75;exitDx=0;exitDy=0;entryX=0.167;entryY=-0.004;entryDx=0;entryDy=0;entryPerimeter=0;dashed=1;" edge="1" parent="WIyWlLk6GJQsqaUBKTNV-1" source="eUKd4wo9xv5tM5uWWKsk-1" target="zkfFHV4jXpPFQw0GAbJ--6">
          <mxGeometry relative="1" as="geometry" />
        </mxCell>
        <mxCell id="eUKd4wo9xv5tM5uWWKsk-28" style="edgeStyle=elbowEdgeStyle;rounded=0;orthogonalLoop=1;jettySize=auto;html=1;exitX=0;exitY=0.5;exitDx=0;exitDy=0;entryX=0.5;entryY=1;entryDx=0;entryDy=0;" edge="1" parent="WIyWlLk6GJQsqaUBKTNV-1" source="qyGvKozQ2ItO-eMo8t-X-65" target="eUKd4wo9xv5tM5uWWKsk-6">
          <mxGeometry relative="1" as="geometry">
            <Array as="points">
              <mxPoint x="-950" y="-224" />
            </Array>
          </mxGeometry>
        </mxCell>
        <mxCell id="eUKd4wo9xv5tM5uWWKsk-29" style="edgeStyle=elbowEdgeStyle;rounded=0;orthogonalLoop=1;jettySize=auto;html=1;exitX=0;exitY=0.5;exitDx=0;exitDy=0;entryX=0.5;entryY=1;entryDx=0;entryDy=0;" edge="1" parent="WIyWlLk6GJQsqaUBKTNV-1" source="qyGvKozQ2ItO-eMo8t-X-68" target="eUKd4wo9xv5tM5uWWKsk-6">
          <mxGeometry relative="1" as="geometry">
            <Array as="points">
              <mxPoint x="-950" y="-54" />
            </Array>
          </mxGeometry>
        </mxCell>
        <mxCell id="eUKd4wo9xv5tM5uWWKsk-34" style="edgeStyle=elbowEdgeStyle;rounded=0;orthogonalLoop=1;jettySize=auto;html=1;exitX=0.5;exitY=0;exitDx=0;exitDy=0;entryX=0.5;entryY=1;entryDx=0;entryDy=0;" edge="1" parent="WIyWlLk6GJQsqaUBKTNV-1" source="eUKd4wo9xv5tM5uWWKsk-33" target="qyGvKozQ2ItO-eMo8t-X-72">
          <mxGeometry relative="1" as="geometry" />
        </mxCell>
        <mxCell id="eUKd4wo9xv5tM5uWWKsk-35" style="edgeStyle=elbowEdgeStyle;rounded=0;orthogonalLoop=1;jettySize=auto;html=1;exitX=1;exitY=0.5;exitDx=0;exitDy=0;entryX=0;entryY=0.5;entryDx=0;entryDy=0;dashed=1;" edge="1" parent="WIyWlLk6GJQsqaUBKTNV-1" source="eUKd4wo9xv5tM5uWWKsk-33" target="qyGvKozQ2ItO-eMo8t-X-63">
          <mxGeometry relative="1" as="geometry" />
        </mxCell>
        <mxCell id="eUKd4wo9xv5tM5uWWKsk-33" value="MaterialModel" style="swimlane;fontStyle=2;align=center;verticalAlign=top;childLayout=stackLayout;horizontal=1;startSize=26;horizontalStack=0;resizeParent=1;resizeLast=0;collapsible=1;marginBottom=0;rounded=0;shadow=0;strokeWidth=1;" collapsed="1" vertex="1" parent="WIyWlLk6GJQsqaUBKTNV-1">
          <mxGeometry x="-1030" y="556" width="160" height="26" as="geometry">
            <mxRectangle x="-180" y="700" width="160" height="30" as="alternateBounds" />
          </mxGeometry>
        </mxCell>
        <mxCell id="eUKd4wo9xv5tM5uWWKsk-41" style="edgeStyle=elbowEdgeStyle;rounded=0;orthogonalLoop=1;jettySize=auto;html=1;exitX=0.5;exitY=0;exitDx=0;exitDy=0;entryX=0.5;entryY=1;entryDx=0;entryDy=0;" edge="1" parent="WIyWlLk6GJQsqaUBKTNV-1" source="eUKd4wo9xv5tM5uWWKsk-36" target="eUKd4wo9xv5tM5uWWKsk-6">
          <mxGeometry relative="1" as="geometry">
            <Array as="points">
              <mxPoint x="-950" y="-374" />
            </Array>
          </mxGeometry>
        </mxCell>
        <mxCell id="eUKd4wo9xv5tM5uWWKsk-44" style="edgeStyle=elbowEdgeStyle;rounded=0;orthogonalLoop=1;jettySize=auto;html=1;exitX=0.5;exitY=0;exitDx=0;exitDy=0;entryX=0;entryY=0;entryDx=0;entryDy=0;dashed=1;" edge="1" parent="WIyWlLk6GJQsqaUBKTNV-1" source="eUKd4wo9xv5tM5uWWKsk-36" target="zkfFHV4jXpPFQw0GAbJ--6">
          <mxGeometry relative="1" as="geometry">
            <mxPoint x="-600" y="-204" as="targetPoint" />
            <Array as="points">
              <mxPoint x="-820" y="-194" />
            </Array>
          </mxGeometry>
        </mxCell>
        <mxCell id="eUKd4wo9xv5tM5uWWKsk-36" value="Emitter" style="swimlane;fontStyle=0;align=center;verticalAlign=top;childLayout=stackLayout;horizontal=1;startSize=26;horizontalStack=0;resizeParent=1;resizeLast=0;collapsible=1;marginBottom=0;rounded=0;shadow=0;strokeWidth=1;" vertex="1" parent="WIyWlLk6GJQsqaUBKTNV-1">
          <mxGeometry x="-1500" y="-60" width="400" height="390" as="geometry">
            <mxRectangle x="120" y="360" width="160" height="26" as="alternateBounds" />
          </mxGeometry>
        </mxCell>
        <mxCell id="eUKd4wo9xv5tM5uWWKsk-37" value="- EmitterConfiguration conf&#xa;- vector&lt;Item*&gt; particlesVector&#xa;- vector&lt;long&gt; particleCreationTimes&#xa;- milliseconds initialMilliseconds&#xa;- long lastUpdateTime&#xa;- long nextInterval&#xa;- int currentBurstSize&#xa;- int generateRandom(int min, int max)" style="text;align=left;verticalAlign=top;spacingLeft=4;spacingRight=4;overflow=hidden;rotatable=0;points=[[0,0.5],[1,0.5]];portConstraint=eastwest;" vertex="1" parent="eUKd4wo9xv5tM5uWWKsk-36">
          <mxGeometry y="26" width="400" height="144" as="geometry" />
        </mxCell>
        <mxCell id="eUKd4wo9xv5tM5uWWKsk-38" value="" style="line;html=1;strokeWidth=1;align=left;verticalAlign=middle;spacingTop=-1;spacingLeft=3;spacingRight=3;rotatable=0;labelPosition=right;points=[];portConstraint=eastwest;" vertex="1" parent="eUKd4wo9xv5tM5uWWKsk-36">
          <mxGeometry y="170" width="400" height="8" as="geometry" />
        </mxCell>
        <mxCell id="eUKd4wo9xv5tM5uWWKsk-39" value="+ inline vector&lt;Item*&gt; getParticles()&#xa;+ Color randomColor(int particleId)&#xa;+ void Render()&#xa;+ void Update(const float&amp; timeUpdate)&#xa;+ inline void setConfiguration(const EmitterConfiguration&amp; configuration)&#xa;+ void removeParticle(Solid* particle)&#xa;+ void clearParticles()    &#xa;+ Vector3D randomPositionOffsetZ(int particleId)&#xa;+ Item* generateSolidByProbability(const vector&lt;pair&lt;Item*, float&gt;&gt;&amp; &#xa;solidsWithProbabilities)&#xa;+void checkCollisionsPlayer(Player player)&#xa;+ Solid* Clone()" style="text;align=left;verticalAlign=top;spacingLeft=4;spacingRight=4;overflow=hidden;rotatable=0;points=[[0,0.5],[1,0.5]];portConstraint=eastwest;fontStyle=0" vertex="1" parent="eUKd4wo9xv5tM5uWWKsk-36">
          <mxGeometry y="178" width="400" height="212" as="geometry" />
        </mxCell>
        <mxCell id="eUKd4wo9xv5tM5uWWKsk-46" style="edgeStyle=elbowEdgeStyle;rounded=0;orthogonalLoop=1;jettySize=auto;html=1;exitX=1;exitY=0.5;exitDx=0;exitDy=0;entryX=-0.011;entryY=0.238;entryDx=0;entryDy=0;entryPerimeter=0;dashed=1;" edge="1" parent="WIyWlLk6GJQsqaUBKTNV-1" source="qyGvKozQ2ItO-eMo8t-X-68" target="zkfFHV4jXpPFQw0GAbJ--7">
          <mxGeometry relative="1" as="geometry">
            <Array as="points">
              <mxPoint x="-420" y="240" />
            </Array>
          </mxGeometry>
        </mxCell>
        <mxCell id="eUKd4wo9xv5tM5uWWKsk-48" style="edgeStyle=elbowEdgeStyle;rounded=0;orthogonalLoop=1;jettySize=auto;html=1;exitX=0;exitY=0.5;exitDx=0;exitDy=0;entryX=1;entryY=0.5;entryDx=0;entryDy=0;" edge="1" parent="WIyWlLk6GJQsqaUBKTNV-1" source="eUKd4wo9xv5tM5uWWKsk-47" target="eUKd4wo9xv5tM5uWWKsk-6">
          <mxGeometry relative="1" as="geometry" />
        </mxCell>
        <mxCell id="eUKd4wo9xv5tM5uWWKsk-49" style="edgeStyle=elbowEdgeStyle;rounded=0;orthogonalLoop=1;jettySize=auto;html=1;exitX=1;exitY=0.5;exitDx=0;exitDy=0;entryX=0;entryY=0.5;entryDx=0;entryDy=0;dashed=1;" edge="1" parent="WIyWlLk6GJQsqaUBKTNV-1" source="eUKd4wo9xv5tM5uWWKsk-47" target="zkfFHV4jXpPFQw0GAbJ--2">
          <mxGeometry relative="1" as="geometry">
            <Array as="points">
              <mxPoint x="-270" y="-514" />
            </Array>
          </mxGeometry>
        </mxCell>
        <mxCell id="eUKd4wo9xv5tM5uWWKsk-47" value="Camera" style="swimlane;fontStyle=2;align=center;verticalAlign=top;childLayout=stackLayout;horizontal=1;startSize=26;horizontalStack=0;resizeParent=1;resizeLast=0;collapsible=1;marginBottom=0;rounded=0;shadow=0;strokeWidth=1;" collapsed="1" vertex="1" parent="WIyWlLk6GJQsqaUBKTNV-1">
          <mxGeometry x="-580" y="-624" width="160" height="26" as="geometry">
            <mxRectangle x="-180" y="700" width="160" height="30" as="alternateBounds" />
          </mxGeometry>
        </mxCell>
        <mxCell id="eUKd4wo9xv5tM5uWWKsk-51" style="edgeStyle=elbowEdgeStyle;rounded=0;orthogonalLoop=1;jettySize=auto;html=1;exitX=0;exitY=0.5;exitDx=0;exitDy=0;entryX=0.952;entryY=0.008;entryDx=0;entryDy=0;entryPerimeter=0;dashed=1;" edge="1" parent="WIyWlLk6GJQsqaUBKTNV-1" source="qyGvKozQ2ItO-eMo8t-X-26" target="eUKd4wo9xv5tM5uWWKsk-36">
          <mxGeometry relative="1" as="geometry">
            <Array as="points">
              <mxPoint x="-1120" y="-160" />
            </Array>
          </mxGeometry>
        </mxCell>
        <mxCell id="eUKd4wo9xv5tM5uWWKsk-111" style="edgeStyle=elbowEdgeStyle;rounded=0;orthogonalLoop=1;jettySize=auto;html=1;exitX=0.5;exitY=0;exitDx=0;exitDy=0;dashed=1;" edge="1" parent="WIyWlLk6GJQsqaUBKTNV-1" source="eUKd4wo9xv5tM5uWWKsk-52" target="eUKd4wo9xv5tM5uWWKsk-39">
          <mxGeometry relative="1" as="geometry">
            <mxPoint x="-1324.6666666666665" y="290" as="targetPoint" />
          </mxGeometry>
        </mxCell>
        <mxCell id="eUKd4wo9xv5tM5uWWKsk-52" value="EmitterConfiguration" style="swimlane;fontStyle=0;align=center;verticalAlign=top;childLayout=stackLayout;horizontal=1;startSize=26;horizontalStack=0;resizeParent=1;resizeLast=0;collapsible=1;marginBottom=0;rounded=0;shadow=0;strokeWidth=1;" vertex="1" parent="WIyWlLk6GJQsqaUBKTNV-1">
          <mxGeometry x="-1480" y="370" width="340" height="370" as="geometry">
            <mxRectangle x="120" y="360" width="160" height="26" as="alternateBounds" />
          </mxGeometry>
        </mxCell>
        <mxCell id="eUKd4wo9xv5tM5uWWKsk-53" value="-   int maxParticles;&#xa;-   int minBurstSize;&#xa;-   int maxBurstSize;&#xa;-   int minInterval;&#xa;-   int maxInterval;&#xa;-  long lifetimePerParticle;&#xa;-   bool loopEmitter;&#xa;-   vector&lt;pair&lt;Item*, float&gt;&gt; modelsProbability;&#xa;-   bool useModels;" style="text;align=left;verticalAlign=top;spacingLeft=4;spacingRight=4;overflow=hidden;rotatable=0;points=[[0,0.5],[1,0.5]];portConstraint=eastwest;" vertex="1" parent="eUKd4wo9xv5tM5uWWKsk-52">
          <mxGeometry y="26" width="340" height="144" as="geometry" />
        </mxCell>
        <mxCell id="eUKd4wo9xv5tM5uWWKsk-54" value="" style="line;html=1;strokeWidth=1;align=left;verticalAlign=middle;spacingTop=-1;spacingLeft=3;spacingRight=3;rotatable=0;labelPosition=right;points=[];portConstraint=eastwest;" vertex="1" parent="eUKd4wo9xv5tM5uWWKsk-52">
          <mxGeometry y="170" width="340" height="8" as="geometry" />
        </mxCell>
        <mxCell id="eUKd4wo9xv5tM5uWWKsk-55" value="+ inline bool IsUsingModels()&#xa;+ inline int GetMaxParticles()&#xa;+ inline int GetMinBurstSize()&#xa;+ inline int GetMaxBurstSize()&#xa;+ inline int GetMinInterval()&#xa;+ inline int GetMaxInterval() &#xa;+ inline bool GetIsLooped()&#xa;+ inline int getLifetimeParticle()&#xa;+ inline vector&lt;pair&lt;Item*,float&gt;&gt; getVectorAndProbabilites()&#xa;+ inline int getVectorSize()&#xa;+ inline Item* GetParticle(int index) " style="text;align=left;verticalAlign=top;spacingLeft=4;spacingRight=4;overflow=hidden;rotatable=0;points=[[0,0.5],[1,0.5]];portConstraint=eastwest;fontStyle=0" vertex="1" parent="eUKd4wo9xv5tM5uWWKsk-52">
          <mxGeometry y="178" width="340" height="172" as="geometry" />
        </mxCell>
        <mxCell id="eUKd4wo9xv5tM5uWWKsk-60" style="edgeStyle=elbowEdgeStyle;rounded=0;orthogonalLoop=1;jettySize=auto;html=1;exitX=1;exitY=0.5;exitDx=0;exitDy=0;entryX=0;entryY=0.5;entryDx=0;entryDy=0;dashed=1;" edge="1" parent="WIyWlLk6GJQsqaUBKTNV-1" source="eUKd4wo9xv5tM5uWWKsk-59" target="eUKd4wo9xv5tM5uWWKsk-6">
          <mxGeometry relative="1" as="geometry" />
        </mxCell>
        <mxCell id="eUKd4wo9xv5tM5uWWKsk-59" value="Vector3D" style="swimlane;fontStyle=2;align=center;verticalAlign=top;childLayout=stackLayout;horizontal=1;startSize=26;horizontalStack=0;resizeParent=1;resizeLast=0;collapsible=1;marginBottom=0;rounded=0;shadow=0;strokeWidth=1;" collapsed="1" vertex="1" parent="WIyWlLk6GJQsqaUBKTNV-1">
          <mxGeometry x="-1380" y="-560" width="160" height="26" as="geometry">
            <mxRectangle x="-180" y="700" width="160" height="30" as="alternateBounds" />
          </mxGeometry>
        </mxCell>
        <mxCell id="eUKd4wo9xv5tM5uWWKsk-61" style="edgeStyle=elbowEdgeStyle;rounded=0;orthogonalLoop=1;jettySize=auto;html=1;exitX=0;exitY=0.5;exitDx=0;exitDy=0;entryX=-0.006;entryY=0.608;entryDx=0;entryDy=0;entryPerimeter=0;dashed=1;" edge="1" parent="WIyWlLk6GJQsqaUBKTNV-1" source="eUKd4wo9xv5tM5uWWKsk-59" target="eUKd4wo9xv5tM5uWWKsk-53">
          <mxGeometry relative="1" as="geometry">
            <Array as="points">
              <mxPoint x="-1520" y="40" />
            </Array>
          </mxGeometry>
        </mxCell>
        <mxCell id="eUKd4wo9xv5tM5uWWKsk-64" value="Barrel" style="swimlane;fontStyle=0;align=center;verticalAlign=top;childLayout=stackLayout;horizontal=1;startSize=26;horizontalStack=0;resizeParent=1;resizeLast=0;collapsible=1;marginBottom=0;rounded=0;shadow=0;strokeWidth=1;" vertex="1" parent="WIyWlLk6GJQsqaUBKTNV-1">
          <mxGeometry x="-1020" y="880" width="230" height="210" as="geometry">
            <mxRectangle x="120" y="360" width="160" height="26" as="alternateBounds" />
          </mxGeometry>
        </mxCell>
        <mxCell id="eUKd4wo9xv5tM5uWWKsk-65" value="&#xa;- Model model;" style="text;align=left;verticalAlign=top;spacingLeft=4;spacingRight=4;overflow=hidden;rotatable=0;points=[[0,0.5],[1,0.5]];portConstraint=eastwest;" vertex="1" parent="eUKd4wo9xv5tM5uWWKsk-64">
          <mxGeometry y="26" width="230" height="44" as="geometry" />
        </mxCell>
        <mxCell id="eUKd4wo9xv5tM5uWWKsk-66" value="" style="line;html=1;strokeWidth=1;align=left;verticalAlign=middle;spacingTop=-1;spacingLeft=3;spacingRight=3;rotatable=0;labelPosition=right;points=[];portConstraint=eastwest;" vertex="1" parent="eUKd4wo9xv5tM5uWWKsk-64">
          <mxGeometry y="70" width="230" height="8" as="geometry" />
        </mxCell>
        <mxCell id="eUKd4wo9xv5tM5uWWKsk-67" value="+ inline void SetModel(const Model&amp; &#xa;mdl) &#xa;+ inline void PaintBarrel(const Color&amp; c)&#xa;+ void Render()&#xa;+ virtual CollisionEffect &#xa;getCollisionEffect() = 0&#xa;+ Item* Clone()" style="text;align=left;verticalAlign=top;spacingLeft=4;spacingRight=4;overflow=hidden;rotatable=0;points=[[0,0.5],[1,0.5]];portConstraint=eastwest;fontStyle=0" vertex="1" parent="eUKd4wo9xv5tM5uWWKsk-64">
          <mxGeometry y="78" width="230" height="132" as="geometry" />
        </mxCell>
        <mxCell id="eUKd4wo9xv5tM5uWWKsk-68" style="edgeStyle=elbowEdgeStyle;rounded=0;orthogonalLoop=1;jettySize=auto;html=1;exitX=0;exitY=0.5;exitDx=0;exitDy=0;entryX=-0.023;entryY=0.238;entryDx=0;entryDy=0;entryPerimeter=0;" edge="1" parent="WIyWlLk6GJQsqaUBKTNV-1" source="eUKd4wo9xv5tM5uWWKsk-65" target="tcnJLqr5YEz-4BtEn-d9-3">
          <mxGeometry relative="1" as="geometry">
            <Array as="points">
              <mxPoint x="-1050" y="90" />
            </Array>
          </mxGeometry>
        </mxCell>
        <mxCell id="eUKd4wo9xv5tM5uWWKsk-95" value="    PowerUp" style="swimlane;fontStyle=0;align=center;verticalAlign=top;childLayout=stackLayout;horizontal=1;startSize=26;horizontalStack=0;resizeParent=1;resizeLast=0;collapsible=1;marginBottom=0;rounded=0;shadow=0;strokeWidth=1;" vertex="1" parent="WIyWlLk6GJQsqaUBKTNV-1">
          <mxGeometry x="60" y="845" width="130" height="120" as="geometry">
            <mxRectangle x="120" y="360" width="160" height="26" as="alternateBounds" />
          </mxGeometry>
        </mxCell>
        <mxCell id="eUKd4wo9xv5tM5uWWKsk-96" value="&#xa;- Model itemModel;" style="text;align=left;verticalAlign=top;spacingLeft=4;spacingRight=4;overflow=hidden;rotatable=0;points=[[0,0.5],[1,0.5]];portConstraint=eastwest;" vertex="1" parent="eUKd4wo9xv5tM5uWWKsk-95">
          <mxGeometry y="26" width="130" height="44" as="geometry" />
        </mxCell>
        <mxCell id="eUKd4wo9xv5tM5uWWKsk-97" value="" style="line;html=1;strokeWidth=1;align=left;verticalAlign=middle;spacingTop=-1;spacingLeft=3;spacingRight=3;rotatable=0;labelPosition=right;points=[];portConstraint=eastwest;" vertex="1" parent="eUKd4wo9xv5tM5uWWKsk-95">
          <mxGeometry y="70" width="130" height="8" as="geometry" />
        </mxCell>
        <mxCell id="eUKd4wo9xv5tM5uWWKsk-98" value="+ virtual void Render()&#xa;+ Item* Clone()" style="text;align=left;verticalAlign=top;spacingLeft=4;spacingRight=4;overflow=hidden;rotatable=0;points=[[0,0.5],[1,0.5]];portConstraint=eastwest;fontStyle=0" vertex="1" parent="eUKd4wo9xv5tM5uWWKsk-95">
          <mxGeometry y="78" width="130" height="42" as="geometry" />
        </mxCell>
        <mxCell id="eUKd4wo9xv5tM5uWWKsk-119" style="edgeStyle=elbowEdgeStyle;rounded=0;orthogonalLoop=1;jettySize=auto;html=1;exitX=-0.008;exitY=0;exitDx=0;exitDy=0;exitPerimeter=0;entryX=0.75;entryY=1;entryDx=0;entryDy=0;" edge="1" parent="WIyWlLk6GJQsqaUBKTNV-1" source="eUKd4wo9xv5tM5uWWKsk-96" target="tcnJLqr5YEz-4BtEn-d9-2">
          <mxGeometry relative="1" as="geometry">
            <Array as="points">
              <mxPoint x="-800" y="-150" />
              <mxPoint x="-697" y="20" />
            </Array>
            <mxPoint x="-697" y="-710" as="targetPoint" />
            <mxPoint x="-628.04" y="726" as="sourcePoint" />
          </mxGeometry>
        </mxCell>
        <mxCell id="eUKd4wo9xv5tM5uWWKsk-124" style="edgeStyle=elbowEdgeStyle;rounded=0;orthogonalLoop=1;jettySize=auto;html=1;entryX=0;entryY=0.75;entryDx=0;entryDy=0;exitX=1.003;exitY=0.778;exitDx=0;exitDy=0;exitPerimeter=0;" edge="1" parent="WIyWlLk6GJQsqaUBKTNV-1" source="4nb4BcyhLwAWRvv1Huzy-71" target="tcnJLqr5YEz-4BtEn-d9-2">
          <mxGeometry relative="1" as="geometry">
            <Array as="points">
              <mxPoint x="-1080" y="830" />
            </Array>
            <mxPoint x="-1150" y="822" as="sourcePoint" />
          </mxGeometry>
        </mxCell>
        <mxCell id="4nb4BcyhLwAWRvv1Huzy-0" value="Time" style="swimlane;fontStyle=3;align=center;verticalAlign=top;childLayout=stackLayout;horizontal=1;startSize=26;horizontalStack=0;resizeParent=1;resizeLast=0;collapsible=1;marginBottom=0;rounded=0;shadow=0;strokeWidth=1;" vertex="1" parent="WIyWlLk6GJQsqaUBKTNV-1">
          <mxGeometry x="-30" y="212" width="330" height="220" as="geometry">
            <mxRectangle x="230" y="140" width="160" height="26" as="alternateBounds" />
          </mxGeometry>
        </mxCell>
        <mxCell id="4nb4BcyhLwAWRvv1Huzy-1" value="- milliseconds interTime;&#xa;- float time;&#xa;- float timeScale;&#xa;- double deltaTime;&#xa;- double unscaledDeltaTime;" style="text;align=left;verticalAlign=top;spacingLeft=4;spacingRight=4;overflow=hidden;rotatable=0;points=[[0,0.5],[1,0.5]];portConstraint=eastwest;" vertex="1" parent="4nb4BcyhLwAWRvv1Huzy-0">
          <mxGeometry y="26" width="330" height="94" as="geometry" />
        </mxCell>
        <mxCell id="4nb4BcyhLwAWRvv1Huzy-4" value="" style="line;html=1;strokeWidth=1;align=left;verticalAlign=middle;spacingTop=-1;spacingLeft=3;spacingRight=3;rotatable=0;labelPosition=right;points=[];portConstraint=eastwest;" vertex="1" parent="4nb4BcyhLwAWRvv1Huzy-0">
          <mxGeometry y="120" width="330" height="8" as="geometry" />
        </mxCell>
        <mxCell id="4nb4BcyhLwAWRvv1Huzy-5" value="+ inline float GetTime() { return time; }&#xa;+ inline float GetDeltaTime() &#xa;+ inline double GetUnscaledDeltaTime()&#xa;+ void SetTimeScale(float&amp; timeScale)&#xa;+ void Run();" style="text;align=left;verticalAlign=top;spacingLeft=4;spacingRight=4;overflow=hidden;rotatable=0;points=[[0,0.5],[1,0.5]];portConstraint=eastwest;" vertex="1" parent="4nb4BcyhLwAWRvv1Huzy-0">
          <mxGeometry y="128" width="330" height="92" as="geometry" />
        </mxCell>
        <mxCell id="4nb4BcyhLwAWRvv1Huzy-6" style="edgeStyle=orthogonalEdgeStyle;rounded=0;orthogonalLoop=1;jettySize=auto;html=1;exitX=0;exitY=0.5;exitDx=0;exitDy=0;entryX=1;entryY=0.593;entryDx=0;entryDy=0;entryPerimeter=0;" edge="1" parent="WIyWlLk6GJQsqaUBKTNV-1" source="4nb4BcyhLwAWRvv1Huzy-1" target="zkfFHV4jXpPFQw0GAbJ--7">
          <mxGeometry relative="1" as="geometry" />
        </mxCell>
        <mxCell id="4nb4BcyhLwAWRvv1Huzy-8" style="edgeStyle=orthogonalEdgeStyle;rounded=0;orthogonalLoop=1;jettySize=auto;html=1;exitX=0.5;exitY=1;exitDx=0;exitDy=0;" edge="1" parent="WIyWlLk6GJQsqaUBKTNV-1" source="tcnJLqr5YEz-4BtEn-d9-2">
          <mxGeometry relative="1" as="geometry">
            <mxPoint x="-950" y="-600" as="targetPoint" />
          </mxGeometry>
        </mxCell>
        <mxCell id="tcnJLqr5YEz-4BtEn-d9-2" value="Item" style="swimlane;fontStyle=0;align=center;verticalAlign=top;childLayout=stackLayout;horizontal=1;startSize=26;horizontalStack=0;resizeParent=1;resizeLast=0;collapsible=1;marginBottom=0;rounded=0;shadow=0;strokeWidth=1;" vertex="1" parent="WIyWlLk6GJQsqaUBKTNV-1">
          <mxGeometry x="-990" y="-800" width="260" height="70" as="geometry">
            <mxRectangle x="120" y="360" width="160" height="26" as="alternateBounds" />
          </mxGeometry>
        </mxCell>
        <mxCell id="tcnJLqr5YEz-4BtEn-d9-3" value="+ virtual CollisionEffect getCollisionEffect() = 0&#xa;+ virtual Item* Clone() = 0;" style="text;align=left;verticalAlign=top;spacingLeft=4;spacingRight=4;overflow=hidden;rotatable=0;points=[[0,0.5],[1,0.5]];portConstraint=eastwest;fontStyle=0" vertex="1" parent="tcnJLqr5YEz-4BtEn-d9-2">
          <mxGeometry y="26" width="260" height="42" as="geometry" />
        </mxCell>
        <mxCell id="4nb4BcyhLwAWRvv1Huzy-10" value="Collision Effect" style="swimlane;fontStyle=3;align=center;verticalAlign=top;childLayout=stackLayout;horizontal=1;startSize=26;horizontalStack=0;resizeParent=1;resizeLast=0;collapsible=1;marginBottom=0;rounded=0;shadow=0;strokeWidth=1;" vertex="1" parent="WIyWlLk6GJQsqaUBKTNV-1">
          <mxGeometry x="-740" y="1370" width="230" height="120" as="geometry">
            <mxRectangle x="230" y="140" width="160" height="26" as="alternateBounds" />
          </mxGeometry>
        </mxCell>
        <mxCell id="4nb4BcyhLwAWRvv1Huzy-11" value=" - vector &lt;Solid*&gt;gameObjects" style="text;align=left;verticalAlign=top;spacingLeft=4;spacingRight=4;overflow=hidden;rotatable=0;points=[[0,0.5],[1,0.5]];portConstraint=eastwest;" vertex="1" parent="4nb4BcyhLwAWRvv1Huzy-10">
          <mxGeometry y="26" width="230" height="26" as="geometry" />
        </mxCell>
        <mxCell id="4nb4BcyhLwAWRvv1Huzy-14" value="" style="line;html=1;strokeWidth=1;align=left;verticalAlign=middle;spacingTop=-1;spacingLeft=3;spacingRight=3;rotatable=0;labelPosition=right;points=[];portConstraint=eastwest;" vertex="1" parent="4nb4BcyhLwAWRvv1Huzy-10">
          <mxGeometry y="52" width="230" height="8" as="geometry" />
        </mxCell>
        <mxCell id="4nb4BcyhLwAWRvv1Huzy-15" value="+ inline int ColLives()&#xa;+ inline int ColCoins()&#xa;+ inline int ColPowerUpID() " style="text;align=left;verticalAlign=top;spacingLeft=4;spacingRight=4;overflow=hidden;rotatable=0;points=[[0,0.5],[1,0.5]];portConstraint=eastwest;" vertex="1" parent="4nb4BcyhLwAWRvv1Huzy-10">
          <mxGeometry y="60" width="230" height="60" as="geometry" />
        </mxCell>
        <mxCell id="4nb4BcyhLwAWRvv1Huzy-24" value="Enum &lt;PowerUp&gt;" style="swimlane;fontStyle=2;align=center;verticalAlign=top;childLayout=stackLayout;horizontal=1;startSize=26;horizontalStack=0;resizeParent=1;resizeLast=0;collapsible=1;marginBottom=0;rounded=0;shadow=0;strokeWidth=1;" vertex="1" parent="WIyWlLk6GJQsqaUBKTNV-1">
          <mxGeometry x="-930" y="-174" width="120" height="110" as="geometry">
            <mxRectangle x="230" y="140" width="160" height="26" as="alternateBounds" />
          </mxGeometry>
        </mxCell>
        <mxCell id="4nb4BcyhLwAWRvv1Huzy-25" value="None&#xa;Ray&#xa;Shield&#xa;SpeedReduce" style="text;align=left;verticalAlign=top;spacingLeft=4;spacingRight=4;overflow=hidden;rotatable=0;points=[[0,0.5],[1,0.5]];portConstraint=eastwest;rounded=0;shadow=0;html=0;" vertex="1" parent="4nb4BcyhLwAWRvv1Huzy-24">
          <mxGeometry y="26" width="120" height="84" as="geometry" />
        </mxCell>
        <mxCell id="4nb4BcyhLwAWRvv1Huzy-26" style="edgeStyle=orthogonalEdgeStyle;rounded=0;orthogonalLoop=1;jettySize=auto;html=1;exitX=0.5;exitY=1;exitDx=0;exitDy=0;entryX=-0.002;entryY=0.121;entryDx=0;entryDy=0;entryPerimeter=0;dashed=1;" edge="1" parent="WIyWlLk6GJQsqaUBKTNV-1" source="4nb4BcyhLwAWRvv1Huzy-24" target="qyGvKozQ2ItO-eMo8t-X-65">
          <mxGeometry relative="1" as="geometry" />
        </mxCell>
        <mxCell id="tcnJLqr5YEz-4BtEn-d9-11" style="edgeStyle=orthogonalEdgeStyle;rounded=0;orthogonalLoop=1;jettySize=auto;html=1;exitX=0.5;exitY=0;exitDx=0;exitDy=0;entryX=0;entryY=0.5;entryDx=0;entryDy=0;" edge="1" parent="WIyWlLk6GJQsqaUBKTNV-1" source="4nb4BcyhLwAWRvv1Huzy-33" target="eUKd4wo9xv5tM5uWWKsk-67">
          <mxGeometry relative="1" as="geometry">
            <mxPoint x="-1105" y="870" as="targetPoint" />
            <Array as="points">
              <mxPoint x="-1285" y="1067" />
              <mxPoint x="-1105" y="1067" />
              <mxPoint x="-1105" y="1024" />
            </Array>
            <mxPoint x="-1420" y="1091" as="sourcePoint" />
          </mxGeometry>
        </mxCell>
        <mxCell id="4nb4BcyhLwAWRvv1Huzy-33" value="DDBarrel" style="swimlane;fontStyle=0;align=center;verticalAlign=top;childLayout=stackLayout;horizontal=1;startSize=26;horizontalStack=0;resizeParent=1;resizeLast=0;collapsible=1;marginBottom=0;rounded=0;shadow=0;strokeWidth=1;" vertex="1" parent="WIyWlLk6GJQsqaUBKTNV-1">
          <mxGeometry x="-1400" y="1150" width="230" height="120" as="geometry">
            <mxRectangle x="120" y="360" width="160" height="26" as="alternateBounds" />
          </mxGeometry>
        </mxCell>
        <mxCell id="4nb4BcyhLwAWRvv1Huzy-34" value="&#xa;- ModelLoader loader" style="text;align=left;verticalAlign=top;spacingLeft=4;spacingRight=4;overflow=hidden;rotatable=0;points=[[0,0.5],[1,0.5]];portConstraint=eastwest;" vertex="1" parent="4nb4BcyhLwAWRvv1Huzy-33">
          <mxGeometry y="26" width="230" height="44" as="geometry" />
        </mxCell>
        <mxCell id="4nb4BcyhLwAWRvv1Huzy-35" value="" style="line;html=1;strokeWidth=1;align=left;verticalAlign=middle;spacingTop=-1;spacingLeft=3;spacingRight=3;rotatable=0;labelPosition=right;points=[];portConstraint=eastwest;" vertex="1" parent="4nb4BcyhLwAWRvv1Huzy-33">
          <mxGeometry y="70" width="230" height="8" as="geometry" />
        </mxCell>
        <mxCell id="4nb4BcyhLwAWRvv1Huzy-36" value="+ CollisionEffect getCollisionEffect()&#xa;+ Item* Clone()" style="text;align=left;verticalAlign=top;spacingLeft=4;spacingRight=4;overflow=hidden;rotatable=0;points=[[0,0.5],[1,0.5]];portConstraint=eastwest;fontStyle=0" vertex="1" parent="4nb4BcyhLwAWRvv1Huzy-33">
          <mxGeometry y="78" width="230" height="42" as="geometry" />
        </mxCell>
        <mxCell id="GJxwkSnrLi0bwV0fR-sz-5" style="edgeStyle=orthogonalEdgeStyle;rounded=0;orthogonalLoop=1;jettySize=auto;html=1;entryX=-0.009;entryY=0.811;entryDx=0;entryDy=0;entryPerimeter=0;" edge="1" parent="WIyWlLk6GJQsqaUBKTNV-1" source="GJxwkSnrLi0bwV0fR-sz-0" target="eUKd4wo9xv5tM5uWWKsk-67">
          <mxGeometry relative="1" as="geometry">
            <mxPoint x="-1015" y="950" as="targetPoint" />
            <Array as="points">
              <mxPoint x="-1035" y="1065" />
            </Array>
          </mxGeometry>
        </mxCell>
        <mxCell id="GJxwkSnrLi0bwV0fR-sz-0" value="WideBarrel" style="swimlane;fontStyle=0;align=center;verticalAlign=top;childLayout=stackLayout;horizontal=1;startSize=26;horizontalStack=0;resizeParent=1;resizeLast=0;collapsible=1;marginBottom=0;rounded=0;shadow=0;strokeWidth=1;" vertex="1" parent="WIyWlLk6GJQsqaUBKTNV-1">
          <mxGeometry x="-1150" y="1150" width="230" height="120" as="geometry">
            <mxRectangle x="120" y="360" width="160" height="26" as="alternateBounds" />
          </mxGeometry>
        </mxCell>
        <mxCell id="GJxwkSnrLi0bwV0fR-sz-1" value="&#xa;- ModelLoader loader" style="text;align=left;verticalAlign=top;spacingLeft=4;spacingRight=4;overflow=hidden;rotatable=0;points=[[0,0.5],[1,0.5]];portConstraint=eastwest;" vertex="1" parent="GJxwkSnrLi0bwV0fR-sz-0">
          <mxGeometry y="26" width="230" height="44" as="geometry" />
        </mxCell>
        <mxCell id="GJxwkSnrLi0bwV0fR-sz-2" value="" style="line;html=1;strokeWidth=1;align=left;verticalAlign=middle;spacingTop=-1;spacingLeft=3;spacingRight=3;rotatable=0;labelPosition=right;points=[];portConstraint=eastwest;" vertex="1" parent="GJxwkSnrLi0bwV0fR-sz-0">
          <mxGeometry y="70" width="230" height="8" as="geometry" />
        </mxCell>
        <mxCell id="GJxwkSnrLi0bwV0fR-sz-3" value="+ CollisionEffect getCollisionEffect()&#xa;+ Item* Clone()" style="text;align=left;verticalAlign=top;spacingLeft=4;spacingRight=4;overflow=hidden;rotatable=0;points=[[0,0.5],[1,0.5]];portConstraint=eastwest;fontStyle=0" vertex="1" parent="GJxwkSnrLi0bwV0fR-sz-0">
          <mxGeometry y="78" width="230" height="42" as="geometry" />
        </mxCell>
        <mxCell id="VzPNRWS4TENnfNiqB77O-6" style="edgeStyle=orthogonalEdgeStyle;rounded=0;orthogonalLoop=1;jettySize=auto;html=1;exitX=0.5;exitY=0;exitDx=0;exitDy=0;entryX=1.013;entryY=0.886;entryDx=0;entryDy=0;entryPerimeter=0;" edge="1" parent="WIyWlLk6GJQsqaUBKTNV-1" source="tcnJLqr5YEz-4BtEn-d9-6" target="eUKd4wo9xv5tM5uWWKsk-67">
          <mxGeometry relative="1" as="geometry">
            <mxPoint x="-910" y="990" as="targetPoint" />
            <Array as="points">
              <mxPoint x="-775" y="1075" />
            </Array>
          </mxGeometry>
        </mxCell>
        <mxCell id="tcnJLqr5YEz-4BtEn-d9-6" value="NormalBarrel" style="swimlane;fontStyle=0;align=center;verticalAlign=top;childLayout=stackLayout;horizontal=1;startSize=30;horizontalStack=0;resizeParent=1;resizeLast=0;collapsible=1;marginBottom=0;rounded=0;shadow=0;strokeWidth=1;" vertex="1" parent="WIyWlLk6GJQsqaUBKTNV-1">
          <mxGeometry x="-890" y="1150" width="230" height="124" as="geometry">
            <mxRectangle x="120" y="360" width="160" height="26" as="alternateBounds" />
          </mxGeometry>
        </mxCell>
        <mxCell id="tcnJLqr5YEz-4BtEn-d9-7" value="&#xa;- ModelLoader loader" style="text;align=left;verticalAlign=top;spacingLeft=4;spacingRight=4;overflow=hidden;rotatable=0;points=[[0,0.5],[1,0.5]];portConstraint=eastwest;" vertex="1" parent="tcnJLqr5YEz-4BtEn-d9-6">
          <mxGeometry y="30" width="230" height="44" as="geometry" />
        </mxCell>
        <mxCell id="tcnJLqr5YEz-4BtEn-d9-8" value="" style="line;html=1;strokeWidth=1;align=left;verticalAlign=middle;spacingTop=-1;spacingLeft=3;spacingRight=3;rotatable=0;labelPosition=right;points=[];portConstraint=eastwest;" vertex="1" parent="tcnJLqr5YEz-4BtEn-d9-6">
          <mxGeometry y="74" width="230" height="8" as="geometry" />
        </mxCell>
        <mxCell id="tcnJLqr5YEz-4BtEn-d9-9" value="+ CollisionEffect getCollisionEffect()&#xa;+ Item* Clone()" style="text;align=left;verticalAlign=top;spacingLeft=4;spacingRight=4;overflow=hidden;rotatable=0;points=[[0,0.5],[1,0.5]];portConstraint=eastwest;fontStyle=0" vertex="1" parent="tcnJLqr5YEz-4BtEn-d9-6">
          <mxGeometry y="82" width="230" height="42" as="geometry" />
        </mxCell>
        <mxCell id="tcnJLqr5YEz-4BtEn-d9-13" style="edgeStyle=orthogonalEdgeStyle;rounded=0;orthogonalLoop=1;jettySize=auto;html=1;entryX=1.004;entryY=0.697;entryDx=0;entryDy=0;entryPerimeter=0;" edge="1" parent="WIyWlLk6GJQsqaUBKTNV-1" source="VzPNRWS4TENnfNiqB77O-0" target="eUKd4wo9xv5tM5uWWKsk-67">
          <mxGeometry relative="1" as="geometry">
            <mxPoint x="-720" y="940" as="targetPoint" />
            <Array as="points">
              <mxPoint x="-515" y="1121" />
              <mxPoint x="-720" y="1121" />
              <mxPoint x="-720" y="1050" />
            </Array>
          </mxGeometry>
        </mxCell>
        <mxCell id="VzPNRWS4TENnfNiqB77O-0" value="SpeedBarrel" style="swimlane;fontStyle=0;align=center;verticalAlign=top;childLayout=stackLayout;horizontal=1;startSize=26;horizontalStack=0;resizeParent=1;resizeLast=0;collapsible=1;marginBottom=0;rounded=0;shadow=0;strokeWidth=1;" vertex="1" parent="WIyWlLk6GJQsqaUBKTNV-1">
          <mxGeometry x="-635" y="1160" width="230" height="120" as="geometry">
            <mxRectangle x="120" y="360" width="160" height="26" as="alternateBounds" />
          </mxGeometry>
        </mxCell>
        <mxCell id="VzPNRWS4TENnfNiqB77O-1" value="&#xa;- ModelLoader loader" style="text;align=left;verticalAlign=top;spacingLeft=4;spacingRight=4;overflow=hidden;rotatable=0;points=[[0,0.5],[1,0.5]];portConstraint=eastwest;" vertex="1" parent="VzPNRWS4TENnfNiqB77O-0">
          <mxGeometry y="26" width="230" height="44" as="geometry" />
        </mxCell>
        <mxCell id="VzPNRWS4TENnfNiqB77O-2" value="" style="line;html=1;strokeWidth=1;align=left;verticalAlign=middle;spacingTop=-1;spacingLeft=3;spacingRight=3;rotatable=0;labelPosition=right;points=[];portConstraint=eastwest;" vertex="1" parent="VzPNRWS4TENnfNiqB77O-0">
          <mxGeometry y="70" width="230" height="8" as="geometry" />
        </mxCell>
        <mxCell id="VzPNRWS4TENnfNiqB77O-3" value="+ CollisionEffect getCollisionEffect()&#xa;+ Item* Clone()" style="text;align=left;verticalAlign=top;spacingLeft=4;spacingRight=4;overflow=hidden;rotatable=0;points=[[0,0.5],[1,0.5]];portConstraint=eastwest;fontStyle=0" vertex="1" parent="VzPNRWS4TENnfNiqB77O-0">
          <mxGeometry y="78" width="230" height="42" as="geometry" />
        </mxCell>
        <mxCell id="4nb4BcyhLwAWRvv1Huzy-37" style="edgeStyle=orthogonalEdgeStyle;rounded=0;orthogonalLoop=1;jettySize=auto;html=1;exitX=0;exitY=0.5;exitDx=0;exitDy=0;dashed=1;" edge="1" parent="WIyWlLk6GJQsqaUBKTNV-1" source="4nb4BcyhLwAWRvv1Huzy-11" target="4nb4BcyhLwAWRvv1Huzy-36">
          <mxGeometry relative="1" as="geometry">
            <Array as="points">
              <mxPoint x="-1280" y="1409" />
            </Array>
          </mxGeometry>
        </mxCell>
        <mxCell id="4nb4BcyhLwAWRvv1Huzy-39" style="edgeStyle=orthogonalEdgeStyle;rounded=0;orthogonalLoop=1;jettySize=auto;html=1;exitX=0;exitY=0;exitDx=0;exitDy=0;entryX=0.473;entryY=1.006;entryDx=0;entryDy=0;entryPerimeter=0;dashed=1;" edge="1" parent="WIyWlLk6GJQsqaUBKTNV-1" source="4nb4BcyhLwAWRvv1Huzy-10" target="GJxwkSnrLi0bwV0fR-sz-3">
          <mxGeometry relative="1" as="geometry">
            <Array as="points">
              <mxPoint x="-740" y="1330" />
              <mxPoint x="-1041" y="1330" />
            </Array>
          </mxGeometry>
        </mxCell>
        <mxCell id="4nb4BcyhLwAWRvv1Huzy-40" style="edgeStyle=orthogonalEdgeStyle;rounded=0;orthogonalLoop=1;jettySize=auto;html=1;exitX=0.25;exitY=0;exitDx=0;exitDy=0;entryX=0.462;entryY=1.015;entryDx=0;entryDy=0;entryPerimeter=0;dashed=1;" edge="1" parent="WIyWlLk6GJQsqaUBKTNV-1" source="4nb4BcyhLwAWRvv1Huzy-10" target="tcnJLqr5YEz-4BtEn-d9-9">
          <mxGeometry relative="1" as="geometry" />
        </mxCell>
        <mxCell id="4nb4BcyhLwAWRvv1Huzy-41" style="edgeStyle=orthogonalEdgeStyle;rounded=0;orthogonalLoop=1;jettySize=auto;html=1;exitX=0.75;exitY=0;exitDx=0;exitDy=0;entryX=0.539;entryY=0.905;entryDx=0;entryDy=0;entryPerimeter=0;dashed=1;" edge="1" parent="WIyWlLk6GJQsqaUBKTNV-1">
          <mxGeometry relative="1" as="geometry">
            <Array as="points">
              <mxPoint x="-567.01" y="1324" />
              <mxPoint x="-510.01" y="1324" />
            </Array>
            <mxPoint x="-567.51" y="1374" as="sourcePoint" />
            <mxPoint x="-511.03999999999996" y="1280.0100000000002" as="targetPoint" />
          </mxGeometry>
        </mxCell>
        <mxCell id="4nb4BcyhLwAWRvv1Huzy-42" style="edgeStyle=orthogonalEdgeStyle;rounded=0;orthogonalLoop=1;jettySize=auto;html=1;exitX=0;exitY=0.5;exitDx=0;exitDy=0;entryX=0.003;entryY=0.797;entryDx=0;entryDy=0;dashed=1;entryPerimeter=0;" edge="1" parent="WIyWlLk6GJQsqaUBKTNV-1" source="4nb4BcyhLwAWRvv1Huzy-15" target="4nb4BcyhLwAWRvv1Huzy-71">
          <mxGeometry relative="1" as="geometry">
            <mxPoint x="-1450" y="821.9999999999995" as="targetPoint" />
            <Array as="points">
              <mxPoint x="-1490" y="1460" />
              <mxPoint x="-1490" y="821" />
            </Array>
          </mxGeometry>
        </mxCell>
        <mxCell id="4nb4BcyhLwAWRvv1Huzy-43" value="Heart" style="swimlane;fontStyle=0;align=center;verticalAlign=top;childLayout=stackLayout;horizontal=1;startSize=26;horizontalStack=0;resizeParent=1;resizeLast=0;collapsible=1;marginBottom=0;rounded=0;shadow=0;strokeWidth=1;" vertex="1" parent="WIyWlLk6GJQsqaUBKTNV-1">
          <mxGeometry x="-365" y="1148" width="230" height="142" as="geometry">
            <mxRectangle x="120" y="360" width="160" height="26" as="alternateBounds" />
          </mxGeometry>
        </mxCell>
        <mxCell id="4nb4BcyhLwAWRvv1Huzy-44" value="- Typeheart typeheart&#xa;- ModelLoader loader" style="text;align=left;verticalAlign=top;spacingLeft=4;spacingRight=4;overflow=hidden;rotatable=0;points=[[0,0.5],[1,0.5]];portConstraint=eastwest;" vertex="1" parent="4nb4BcyhLwAWRvv1Huzy-43">
          <mxGeometry y="26" width="230" height="44" as="geometry" />
        </mxCell>
        <mxCell id="4nb4BcyhLwAWRvv1Huzy-45" value="" style="line;html=1;strokeWidth=1;align=left;verticalAlign=middle;spacingTop=-1;spacingLeft=3;spacingRight=3;rotatable=0;labelPosition=right;points=[];portConstraint=eastwest;" vertex="1" parent="4nb4BcyhLwAWRvv1Huzy-43">
          <mxGeometry y="70" width="230" height="8" as="geometry" />
        </mxCell>
        <mxCell id="4nb4BcyhLwAWRvv1Huzy-46" value="+ inline TypeHeart getHeartType() const&#xa;+ CollisionEffect getCollisionEffect()&#xa;+Item* Clone()" style="text;align=left;verticalAlign=top;spacingLeft=4;spacingRight=4;overflow=hidden;rotatable=0;points=[[0,0.5],[1,0.5]];portConstraint=eastwest;fontStyle=0" vertex="1" parent="4nb4BcyhLwAWRvv1Huzy-43">
          <mxGeometry y="78" width="230" height="42" as="geometry" />
        </mxCell>
        <mxCell id="4nb4BcyhLwAWRvv1Huzy-47" value="Ray" style="swimlane;fontStyle=0;align=center;verticalAlign=top;childLayout=stackLayout;horizontal=1;startSize=26;horizontalStack=0;resizeParent=1;resizeLast=0;collapsible=1;marginBottom=0;rounded=0;shadow=0;strokeWidth=1;" vertex="1" parent="WIyWlLk6GJQsqaUBKTNV-1">
          <mxGeometry x="-115" y="1148" width="230" height="126" as="geometry">
            <mxRectangle x="120" y="360" width="160" height="26" as="alternateBounds" />
          </mxGeometry>
        </mxCell>
        <mxCell id="4nb4BcyhLwAWRvv1Huzy-48" value="&#xa;- ModelLoader loader" style="text;align=left;verticalAlign=top;spacingLeft=4;spacingRight=4;overflow=hidden;rotatable=0;points=[[0,0.5],[1,0.5]];portConstraint=eastwest;" vertex="1" parent="4nb4BcyhLwAWRvv1Huzy-47">
          <mxGeometry y="26" width="230" height="50" as="geometry" />
        </mxCell>
        <mxCell id="4nb4BcyhLwAWRvv1Huzy-49" value="" style="line;html=1;strokeWidth=1;align=left;verticalAlign=middle;spacingTop=-1;spacingLeft=3;spacingRight=3;rotatable=0;labelPosition=right;points=[];portConstraint=eastwest;" vertex="1" parent="4nb4BcyhLwAWRvv1Huzy-47">
          <mxGeometry y="76" width="230" height="8" as="geometry" />
        </mxCell>
        <mxCell id="4nb4BcyhLwAWRvv1Huzy-50" value="+ CollisionEffect getCollisionEffect()&#xa;+ Item* Clone()" style="text;align=left;verticalAlign=top;spacingLeft=4;spacingRight=4;overflow=hidden;rotatable=0;points=[[0,0.5],[1,0.5]];portConstraint=eastwest;fontStyle=0" vertex="1" parent="4nb4BcyhLwAWRvv1Huzy-47">
          <mxGeometry y="84" width="230" height="42" as="geometry" />
        </mxCell>
        <mxCell id="4nb4BcyhLwAWRvv1Huzy-61" style="edgeStyle=orthogonalEdgeStyle;rounded=0;orthogonalLoop=1;jettySize=auto;html=1;exitX=0.5;exitY=0;exitDx=0;exitDy=0;entryX=1;entryY=0.5;entryDx=0;entryDy=0;" edge="1" parent="WIyWlLk6GJQsqaUBKTNV-1" source="4nb4BcyhLwAWRvv1Huzy-51" target="eUKd4wo9xv5tM5uWWKsk-98">
          <mxGeometry relative="1" as="geometry" />
        </mxCell>
        <mxCell id="4nb4BcyhLwAWRvv1Huzy-51" value="Shield" style="swimlane;fontStyle=0;align=center;verticalAlign=top;childLayout=stackLayout;horizontal=1;startSize=30;horizontalStack=0;resizeParent=1;resizeLast=0;collapsible=1;marginBottom=0;rounded=0;shadow=0;strokeWidth=1;" vertex="1" parent="WIyWlLk6GJQsqaUBKTNV-1">
          <mxGeometry x="145" y="1148" width="230" height="124" as="geometry">
            <mxRectangle x="120" y="360" width="160" height="26" as="alternateBounds" />
          </mxGeometry>
        </mxCell>
        <mxCell id="4nb4BcyhLwAWRvv1Huzy-52" value="&#xa;- ModelLoader loader" style="text;align=left;verticalAlign=top;spacingLeft=4;spacingRight=4;overflow=hidden;rotatable=0;points=[[0,0.5],[1,0.5]];portConstraint=eastwest;" vertex="1" parent="4nb4BcyhLwAWRvv1Huzy-51">
          <mxGeometry y="30" width="230" height="44" as="geometry" />
        </mxCell>
        <mxCell id="4nb4BcyhLwAWRvv1Huzy-53" value="" style="line;html=1;strokeWidth=1;align=left;verticalAlign=middle;spacingTop=-1;spacingLeft=3;spacingRight=3;rotatable=0;labelPosition=right;points=[];portConstraint=eastwest;" vertex="1" parent="4nb4BcyhLwAWRvv1Huzy-51">
          <mxGeometry y="74" width="230" height="8" as="geometry" />
        </mxCell>
        <mxCell id="4nb4BcyhLwAWRvv1Huzy-54" value="+ CollisionEffect getCollisionEffect()&#xa;+ Item* Clone()" style="text;align=left;verticalAlign=top;spacingLeft=4;spacingRight=4;overflow=hidden;rotatable=0;points=[[0,0.5],[1,0.5]];portConstraint=eastwest;fontStyle=0" vertex="1" parent="4nb4BcyhLwAWRvv1Huzy-51">
          <mxGeometry y="82" width="230" height="42" as="geometry" />
        </mxCell>
        <mxCell id="4nb4BcyhLwAWRvv1Huzy-55" value="SpeedReduce&#xa;" style="swimlane;fontStyle=0;align=center;verticalAlign=top;childLayout=stackLayout;horizontal=1;startSize=26;horizontalStack=0;resizeParent=1;resizeLast=0;collapsible=1;marginBottom=0;rounded=0;shadow=0;strokeWidth=1;" vertex="1" parent="WIyWlLk6GJQsqaUBKTNV-1">
          <mxGeometry x="405" y="1148" width="230" height="120" as="geometry">
            <mxRectangle x="120" y="360" width="160" height="26" as="alternateBounds" />
          </mxGeometry>
        </mxCell>
        <mxCell id="4nb4BcyhLwAWRvv1Huzy-56" value="&#xa;- ModelLoader loader" style="text;align=left;verticalAlign=top;spacingLeft=4;spacingRight=4;overflow=hidden;rotatable=0;points=[[0,0.5],[1,0.5]];portConstraint=eastwest;" vertex="1" parent="4nb4BcyhLwAWRvv1Huzy-55">
          <mxGeometry y="26" width="230" height="44" as="geometry" />
        </mxCell>
        <mxCell id="4nb4BcyhLwAWRvv1Huzy-57" value="" style="line;html=1;strokeWidth=1;align=left;verticalAlign=middle;spacingTop=-1;spacingLeft=3;spacingRight=3;rotatable=0;labelPosition=right;points=[];portConstraint=eastwest;" vertex="1" parent="4nb4BcyhLwAWRvv1Huzy-55">
          <mxGeometry y="70" width="230" height="8" as="geometry" />
        </mxCell>
        <mxCell id="4nb4BcyhLwAWRvv1Huzy-58" value="+ CollisionEffect getCollisionEffect()&#xa;+ Item* Clone()" style="text;align=left;verticalAlign=top;spacingLeft=4;spacingRight=4;overflow=hidden;rotatable=0;points=[[0,0.5],[1,0.5]];portConstraint=eastwest;fontStyle=0" vertex="1" parent="4nb4BcyhLwAWRvv1Huzy-55">
          <mxGeometry y="78" width="230" height="42" as="geometry" />
        </mxCell>
        <mxCell id="4nb4BcyhLwAWRvv1Huzy-59" style="edgeStyle=orthogonalEdgeStyle;rounded=0;orthogonalLoop=1;jettySize=auto;html=1;exitX=0.5;exitY=0;exitDx=0;exitDy=0;entryX=0.524;entryY=0.978;entryDx=0;entryDy=0;entryPerimeter=0;" edge="1" parent="WIyWlLk6GJQsqaUBKTNV-1" source="4nb4BcyhLwAWRvv1Huzy-43" target="eUKd4wo9xv5tM5uWWKsk-98">
          <mxGeometry relative="1" as="geometry">
            <Array as="points">
              <mxPoint x="-250" y="1020" />
              <mxPoint x="128" y="1020" />
            </Array>
          </mxGeometry>
        </mxCell>
        <mxCell id="4nb4BcyhLwAWRvv1Huzy-60" style="edgeStyle=orthogonalEdgeStyle;rounded=0;orthogonalLoop=1;jettySize=auto;html=1;exitX=0.5;exitY=0;exitDx=0;exitDy=0;" edge="1" parent="WIyWlLk6GJQsqaUBKTNV-1" source="4nb4BcyhLwAWRvv1Huzy-47">
          <mxGeometry relative="1" as="geometry">
            <mxPoint x="90" y="970" as="targetPoint" />
          </mxGeometry>
        </mxCell>
        <mxCell id="4nb4BcyhLwAWRvv1Huzy-62" style="edgeStyle=orthogonalEdgeStyle;rounded=0;orthogonalLoop=1;jettySize=auto;html=1;exitX=0.25;exitY=0;exitDx=0;exitDy=0;entryX=0.771;entryY=1.045;entryDx=0;entryDy=0;entryPerimeter=0;" edge="1" parent="WIyWlLk6GJQsqaUBKTNV-1" source="4nb4BcyhLwAWRvv1Huzy-55" target="eUKd4wo9xv5tM5uWWKsk-98">
          <mxGeometry relative="1" as="geometry">
            <Array as="points">
              <mxPoint x="463" y="1030" />
              <mxPoint x="160" y="1030" />
            </Array>
          </mxGeometry>
        </mxCell>
        <mxCell id="4nb4BcyhLwAWRvv1Huzy-63" style="edgeStyle=orthogonalEdgeStyle;rounded=0;orthogonalLoop=1;jettySize=auto;html=1;exitX=1;exitY=0.5;exitDx=0;exitDy=0;dashed=1;" edge="1" parent="WIyWlLk6GJQsqaUBKTNV-1" source="4nb4BcyhLwAWRvv1Huzy-11">
          <mxGeometry relative="1" as="geometry">
            <mxPoint x="-246" y="1290" as="targetPoint" />
          </mxGeometry>
        </mxCell>
        <mxCell id="4nb4BcyhLwAWRvv1Huzy-64" style="edgeStyle=orthogonalEdgeStyle;rounded=0;orthogonalLoop=1;jettySize=auto;html=1;exitX=1;exitY=0.5;exitDx=0;exitDy=0;dashed=1;" edge="1" parent="WIyWlLk6GJQsqaUBKTNV-1" source="4nb4BcyhLwAWRvv1Huzy-15" target="4nb4BcyhLwAWRvv1Huzy-50">
          <mxGeometry relative="1" as="geometry">
            <Array as="points">
              <mxPoint y="1460" />
            </Array>
            <mxPoint x="-10" y="1320" as="targetPoint" />
          </mxGeometry>
        </mxCell>
        <mxCell id="4nb4BcyhLwAWRvv1Huzy-65" style="edgeStyle=orthogonalEdgeStyle;rounded=0;orthogonalLoop=1;jettySize=auto;html=1;exitX=1;exitY=0.5;exitDx=0;exitDy=0;entryX=0.402;entryY=1.108;entryDx=0;entryDy=0;entryPerimeter=0;dashed=1;" edge="1" parent="WIyWlLk6GJQsqaUBKTNV-1" source="4nb4BcyhLwAWRvv1Huzy-15" target="4nb4BcyhLwAWRvv1Huzy-54">
          <mxGeometry relative="1" as="geometry">
            <Array as="points">
              <mxPoint x="237" y="1460" />
            </Array>
          </mxGeometry>
        </mxCell>
        <mxCell id="4nb4BcyhLwAWRvv1Huzy-70" value="Coin" style="swimlane;fontStyle=0;align=center;verticalAlign=top;childLayout=stackLayout;horizontal=1;startSize=26;horizontalStack=0;resizeParent=1;resizeLast=0;collapsible=1;marginBottom=0;rounded=0;shadow=0;strokeWidth=1;" vertex="1" parent="WIyWlLk6GJQsqaUBKTNV-1">
          <mxGeometry x="-1415" y="760" width="230" height="140" as="geometry">
            <mxRectangle x="120" y="360" width="160" height="26" as="alternateBounds" />
          </mxGeometry>
        </mxCell>
        <mxCell id="4nb4BcyhLwAWRvv1Huzy-71" value="- ModelLoader loader&#xa;- Model coinModel;" style="text;align=left;verticalAlign=top;spacingLeft=4;spacingRight=4;overflow=hidden;rotatable=0;points=[[0,0.5],[1,0.5]];portConstraint=eastwest;" vertex="1" parent="4nb4BcyhLwAWRvv1Huzy-70">
          <mxGeometry y="26" width="230" height="44" as="geometry" />
        </mxCell>
        <mxCell id="4nb4BcyhLwAWRvv1Huzy-72" value="" style="line;html=1;strokeWidth=1;align=left;verticalAlign=middle;spacingTop=-1;spacingLeft=3;spacingRight=3;rotatable=0;labelPosition=right;points=[];portConstraint=eastwest;" vertex="1" parent="4nb4BcyhLwAWRvv1Huzy-70">
          <mxGeometry y="70" width="230" height="8" as="geometry" />
        </mxCell>
        <mxCell id="4nb4BcyhLwAWRvv1Huzy-73" value="+ void Render()&#xa;+ CollisionEffect getCollisionEffect()&#xa;+ Item* Clone()" style="text;align=left;verticalAlign=top;spacingLeft=4;spacingRight=4;overflow=hidden;rotatable=0;points=[[0,0.5],[1,0.5]];portConstraint=eastwest;fontStyle=0" vertex="1" parent="4nb4BcyhLwAWRvv1Huzy-70">
          <mxGeometry y="78" width="230" height="52" as="geometry" />
        </mxCell>
        <mxCell id="4nb4BcyhLwAWRvv1Huzy-66" value="Enum &lt;TypeHeart&gt;" style="swimlane;fontStyle=2;align=center;verticalAlign=top;childLayout=stackLayout;horizontal=1;startSize=26;horizontalStack=0;resizeParent=1;resizeLast=0;collapsible=1;marginBottom=0;rounded=0;shadow=0;strokeWidth=1;" vertex="1" parent="WIyWlLk6GJQsqaUBKTNV-1">
          <mxGeometry x="-210" y="900" width="120" height="110" as="geometry">
            <mxRectangle x="230" y="140" width="160" height="26" as="alternateBounds" />
          </mxGeometry>
        </mxCell>
        <mxCell id="4nb4BcyhLwAWRvv1Huzy-67" value="NormalHeart&#xa;SuperHeart&#xa;PoisonHeart" style="text;align=left;verticalAlign=top;spacingLeft=4;spacingRight=4;overflow=hidden;rotatable=0;points=[[0,0.5],[1,0.5]];portConstraint=eastwest;rounded=0;shadow=0;html=0;" vertex="1" parent="4nb4BcyhLwAWRvv1Huzy-66">
          <mxGeometry y="26" width="120" height="84" as="geometry" />
        </mxCell>
        <mxCell id="4nb4BcyhLwAWRvv1Huzy-68" style="edgeStyle=orthogonalEdgeStyle;rounded=0;orthogonalLoop=1;jettySize=auto;html=1;exitX=0;exitY=0.5;exitDx=0;exitDy=0;entryX=0.25;entryY=0;entryDx=0;entryDy=0;dashed=1;" edge="1" parent="WIyWlLk6GJQsqaUBKTNV-1" source="4nb4BcyhLwAWRvv1Huzy-67" target="4nb4BcyhLwAWRvv1Huzy-43">
          <mxGeometry relative="1" as="geometry" />
        </mxCell>
        <mxCell id="4nb4BcyhLwAWRvv1Huzy-69" style="edgeStyle=orthogonalEdgeStyle;rounded=0;orthogonalLoop=1;jettySize=auto;html=1;exitX=1;exitY=0.5;exitDx=0;exitDy=0;dashed=1;" edge="1" parent="WIyWlLk6GJQsqaUBKTNV-1" source="4nb4BcyhLwAWRvv1Huzy-15">
          <mxGeometry relative="1" as="geometry">
            <Array as="points">
              <mxPoint x="520" y="1460" />
            </Array>
            <mxPoint x="520" y="1270" as="targetPoint" />
          </mxGeometry>
        </mxCell>
      </root>
    </mxGraphModel>
  </diagram>
</mxfile>
